<svg xmlns="http://www.w3.org/2000/svg" viewBox="0 0 963.12 384.36"><defs><style>.cls-1{fill:#ffe54d;}.cls-2{fill:#00cc5f;}.cls-3{fill:#ec444b;}.cls-4{fill:#85a8ff;}.cls-5{fill:#f1804b;}.cls-6{fill:#534ca8;}.cls-7{fill:#b0d4f5;}.cls-8{fill:#fff9c2;}.cls-9{fill:#2c53c7;}.cls-10{fill:#9155cc;}.cls-11{fill:#cf56ca;}.cls-12{fill:#ffde8c;}.cls-13{fill:#e8f0ff;}.cls-14{fill:#2672e3;}.cls-15{fill:#991594;}.cls-16{fill:#973f94;}.cls-17{fill:#6b3f97;}.cls-18{fill:#224099;}.cls-19{fill:#00a14b;}.cls-20{fill:#ffdd15;}.cls-21{fill:#f16522;}.cls-22{fill:#ec1c24;}</style></defs><title>clouds</title><g id="Layer_2" data-name="Layer 2"><g id="sky"><path class="cls-1" d="M2,312.58a1.67,1.67,0,0,1-.4,0v7.81c58.85-10.77,132.56,6.33,164.28,61.65a1.47,1.47,0,0,1,.2.75h11.82C145.91,321.62,65.43,302,2,312.58Z"/><path class="cls-2" d="M2,302.58a1.66,1.66,0,0,1-.4,0v7c64.92-10.72,147,9.51,179.3,72.43a1.52,1.52,0,0,1,.17.76h10.67C159.26,314.65,71.1,292,2,302.58Z"/><path class="cls-3" d="M2,334.86a1.65,1.65,0,0,1-.4,0v7.93C47.7,332,104,342.75,134,382.05a1.31,1.31,0,0,1,.29.75h12.28C116.09,337.34,52.72,324.25,2,334.86Z"/><path class="cls-4" d="M827.9,351.65a87.37,87.37,0,0,1-3.58-21.18,69.77,69.77,0,0,1,1.48-16.78c-16.92-18.22-49.88-10.79-57.7,12.58a1.45,1.45,0,0,1-1.06,1,1.39,1.39,0,0,1-1.62-.5,1.21,1.21,0,0,1-.29-.81c-2.91-12.35-8.46-24.92-18.38-33.25-10.91-9.15-24.54-11.09-38.17-7.86-11.68,2.77-23.42,7.68-32.19,16.1-9.94,9.54-14.81,21.85-15.23,35.47,9.43,2.06,18.64,6.12,25.61,12.88,9.19,8.91,13.2,20.87,13.32,33.5H808.6C810,369.23,817.5,358.67,827.9,351.65Z"/><path class="cls-5" d="M2,323.37a1.64,1.64,0,0,1-.4,0v8.5c52.35-10.8,117.13,3,148.1,50.17a1.4,1.4,0,0,1,.24.75h12.9C131.49,329.2,59.3,312.75,2,323.37Z"/><path class="cls-6" d="M910.35,301.3c-17.51,10.93-24.62,33.51-15.13,52.09a1.51,1.51,0,0,1-2.36,1.82c-16.22-13.79-43.27-13.56-61.71-2.18a1.55,1.55,0,0,1-1.46.94c-9.75,6.5-16.82,16.27-18.08,28.84h150V311.22a1.33,1.33,0,0,1-1.06-.47C949.13,298.47,925.1,292.09,910.35,301.3Z"/><path class="cls-7" d="M310.13,382.41c4.08-22.69,14-47.15,32.62-60a98.87,98.87,0,0,0-4.44-11.67,1.21,1.21,0,0,1-.39-.83c-7.75-16.72-19.85-31.68-32.7-44.49a220.16,220.16,0,0,0-29.78-25.15,1.74,1.74,0,0,1-.94-.65,143.64,143.64,0,0,0-28.81-15.46A115.65,115.65,0,0,0,208,216.58c-.32,1.27-2.38,1.23-2.86-.09-35.4-.51-71.35,13.92-96.54,38.38a1.39,1.39,0,0,1-1.17.42,1.22,1.22,0,0,1-1.34-1.08C98,207.44,43.92,188.58,2,195.6a1.67,1.67,0,0,1-.4,0v67.53c3.12-.37,6.25-.72,9.39-1,51.3-4.31,104.73,4.45,150.25,29.17,36.94,20.06,69.11,50.81,83.37,91.08a1.54,1.54,0,0,1,.08.39h65.44A1.66,1.66,0,0,1,310.13,382.41Z"/><path class="cls-8" d="M855.07,269.93A85.61,85.61,0,0,1,875.59,259a98.57,98.57,0,0,1,11-3.33,55.91,55.91,0,0,1-3.41-23.14c-15.49-3-37.2,3.53-44.47,18.39A80.87,80.87,0,0,1,855.07,269.93Z"/><path class="cls-6" d="M684,350.85c-7.57-6.77-17.3-10.7-27.27-12.23-9.08-1.4-18.79-1.23-27.63,1.5-5.33,1.64-13.35,4.9-14,11.39-.17,1.56-2.6,2.19-2.95.4-4.71-24.33-16.26-49.71-35.2-66.27-18.42-16.11-43.64-21.59-67.33-16a105.06,105.06,0,0,0-58,37.08c-9,11.43-13.4,25-18.58,38.4a1.52,1.52,0,0,1-2.51.66c-8.24-7.31-16.34-15.74-26.1-21-10.17-5.49-21.85-8.73-33.47-8.29-35.77,1.36-52.2,35.16-57.89,66.33h384C697,370.82,693.15,359,684,350.85Z"/><path class="cls-9" d="M132.33,309.51C92,290.43,46,284.76,2,290.93a1.65,1.65,0,0,1-.4,0v8.7c40.64-6.17,83.57-1.73,121.12,15.53,30.29,13.92,57.63,36.23,72,66.89a1.56,1.56,0,0,1,.15.76h12.9C193.37,349.64,164.57,324.75,132.33,309.51Z"/><path class="cls-10" d="M143.57,300.37c-43.79-21.43-93.84-28-142-21.87V288c44.56-6.17,91.51-.7,132.27,18.94,32.86,15.83,62.33,41,76.8,75.14a1.59,1.59,0,0,1,.12.75h14C210.29,345.7,178.78,317.6,143.57,300.37Z"/><path class="cls-11" d="M154.69,291.3c-47-23.68-101-31.3-153.11-25.16v9.36c48.92-6.27,100.53.51,144.78,22.91,35.54,18,66.87,46.23,81.45,84a1.55,1.55,0,0,1,.09.39h13.64C226.87,341.83,192.92,310.55,154.69,291.3Z"/><path class="cls-8" d="M615.73,276.24c11.35,1.89,20.5,8.79,27.88,17.26,3.17-12.84,7.92-25.65,16.05-36.19.76-1,1.56-1.95,2.37-2.9-15.12-18.59-49.57-8.5-57,13-.53,1.53-3,1.37-2.95-.4.74-13.32-2.18-28.25-12.08-37.93-9-8.84-21.47-11.69-33.8-11.49-22.51.35-49.1,8.8-62.46,28.13a82,82,0,0,1,16.89,20.56,85.48,85.48,0,0,1,12-1.61c22.32-1.35,44.42,6.32,60.15,22.43C592.13,279.74,603.56,274.21,615.73,276.24Z"/><path class="cls-12" d="M45.7,82.94A122.11,122.11,0,0,1,93.84,97.52c14.45,8.12,24.65,20,31.72,35,5.46,11.57,10.24,25.56,8.94,38.76,9-8,27-7.29,37.06-3.72a54.05,54.05,0,0,1,27.83,22.57c9.23-11.78,12.35-28.21,4.71-41.74-3.91-6.92-9.48-13.15-17.12-15.93-5.54-2-14.19-3.91-17.19,2.85-.69,1.55-3.33.43-2.74-1.16C183.73,89.27,120.94,36,80.21,63.73c-1.32.9-2.7-.81-2.05-2.05,5.3-10.13,7.06-22.06,1.56-32.52C75,20.22,67,13.5,57.91,9.2,40.77,1.07,15.77-1,2.64,15.37a1.21,1.21,0,0,1-1.06.51V93C14.05,83.58,30.48,81.52,45.7,82.94Z"/><path class="cls-12" d="M756.92,262.3c-5.1-10.75-11.68-21.78-22.51-27.54-14-7.44-29.68-5.25-43.47,1.59-12.36,6.13-23.58,14.34-31.21,26-6.93,10.61-11.09,22.46-13.91,34.75a1.51,1.51,0,0,1-2.51.66c-6.89-8.47-15.89-16.57-27.05-18.43-11.73-2-22.37,2.8-31.4,9.91,14.53,15.83,24.29,36.07,29.12,57,2.72-4.17,7.81-6.83,12.44-8.41a64.43,64.43,0,0,1,30.3-2.24l1.45.24c.55-14,5.61-27.39,16.09-37,9.64-8.84,21.92-14.45,34.66-17.12,12-2.53,24.44-1.51,34.75,5A73.67,73.67,0,0,1,756.92,262.3Z"/><path class="cls-13" d="M852.66,271.74c-12.34-19.72-33.55-35.48-58-30.11-23,5.06-41.81,24.58-48.42,46.89.56.42,1.13.85,1.67,1.31,9.66,8.1,15.64,19.39,19,31.37,10.6-21.45,42-28.11,59.64-11A72.86,72.86,0,0,1,852.66,271.74Z"/><path class="cls-12" d="M928.21,181.28c-10.41,1.16-19.78,6.82-26.65,14.59-14,15.88-19.77,39.13-12.07,59.17,25.14-5.28,52.72-.88,72.09,16.75V194.27a1.46,1.46,0,0,1-1.06-.39C951.7,185.94,940.43,179.92,928.21,181.28Z"/><path class="cls-8" d="M363,253.5a100.49,100.49,0,0,1,47.9-24.81c1.94-.41,3.93-.78,5.93-1.13-4-9.73-11.24-18.57-22.29-20.07-11.42-1.55-22.21,3.72-31.14,10.37a1.48,1.48,0,0,1-1.82-.23c-3.4-3.74-6.55-8.57-11.1-11a27.43,27.43,0,0,0-14-3.05c-9.07.31-18.7,2.95-25.42,9.33a1.4,1.4,0,0,1-1.41.36,1.38,1.38,0,0,1-1.1-1c-3.07-10.51-10.57-19.46-18.55-26.72C281.71,178,272.22,171,261.79,167c-8.48-3.29-17.84-3.52-26.75-2-9.37,1.63-19.86,4.85-25.68,12.92a1.63,1.63,0,0,1-.26.28,45.72,45.72,0,0,1-8.1,14.61,59.61,59.61,0,0,1,6.79,20.73A115.38,115.38,0,0,1,252.84,224a170.08,170.08,0,0,1,22.92,13C302.68,214.87,349.12,219,363,253.5Z"/><path class="cls-7" d="M960.52,274.87c-18.67-17.74-46.21-22.3-71.05-16.87a1.78,1.78,0,0,1-.89.19,90.81,90.81,0,0,0-19.81,7c-14.5,7.14-27.39,18.18-34.66,32.83C826,314.4,825.8,332.64,830.56,350c17.81-10.54,42.61-11.41,59.85-.27-6.36-18.25.43-39.77,17.32-50.31,9-5.59,18.54-6.52,28.76-4.14,8.95,2.08,18.41,5.74,25.09,12.3V275.29A1.42,1.42,0,0,1,960.52,274.87Z"/><path class="cls-7" d="M2,345.8a1.64,1.64,0,0,1-.4,0v37H130.79C101.4,345.16,46.4,335.23,2,345.8Z"/><path class="cls-4" d="M108.53,250.85c3-2.83,6.16-5.54,9.45-8.06,24.39-18.65,55.8-29.58,86.79-29.29-2.61-18.53-14.64-36.22-32.72-42.62-10.68-3.79-32.93-5.67-38.74,6.87-.31,1.16-.68,2.3-1.11,3.44a1.5,1.5,0,0,1-2.89-.8,16.67,16.67,0,0,1,1.16-3.68c3.86-14.94-1.94-32.14-8.77-45.25-7-13.35-16.06-24.08-29.37-31.34A118.44,118.44,0,0,0,45.7,85.94c-14.85-1.19-31,.31-43.06,9.94a1.53,1.53,0,0,1-1.06.35v96.42C44.17,185.69,98.66,204.4,108.53,250.85Z"/><path class="cls-13" d="M360.35,256l.27-.25c-12.27-33.4-56.68-37.47-82.28-16.94a208.8,208.8,0,0,1,32.18,27.81c10.66,11.25,20.7,23.81,27.94,37.71C340.6,286,346.81,269.29,360.35,256Z"/><path class="cls-4" d="M491.61,247.7a1.58,1.58,0,0,1-1.56-1.36,71.53,71.53,0,0,0-23.15-13.6c-17.41-5.81-37.47-5.14-55.24-1.17-18.18,4.06-34.61,12.21-48,25.33a1.34,1.34,0,0,1-.34.34c-6.91,6.84-13.24,14.75-16.59,24a106.11,106.11,0,0,0-5.81,28.17,101.07,101.07,0,0,1,4.42,11.37,51,51,0,0,1,24-7.22,68.86,68.86,0,0,1,35.3,7.94c9.87,5.19,18.07,13.22,26.33,20.66q1.42-3.66,2.86-7.31c2.54-6.43,4.69-13.51,8.14-19.52a97.92,97.92,0,0,1,21-24.81c12.77-11,28.12-19.55,44.58-23.53A82.15,82.15,0,0,0,491.61,247.7Z"/><path class="cls-14" d="M936.49,295.25c-10.21-2.38-19.8-1.45-28.76,4.14-16.89,10.54-23.69,32.06-17.32,50.31-17.24-11.14-42-10.27-59.85.27C825.8,332.64,826,314.4,834.11,298c7.26-14.65,20.16-25.69,34.66-32.83a90.81,90.81,0,0,1,19.81-7,1.78,1.78,0,0,0,.89-.19c24.84-5.44,52.38-.87,71.05,16.87a1.42,1.42,0,0,0,1.06.42,1.5,1.5,0,0,0,1.06-2.54c-.35-.33-.71-.64-1.06-1-19.37-17.62-46.95-22-72.09-16.75-7.69-20-2-43.29,12.07-59.17,6.87-7.77,16.25-13.44,26.65-14.59,12.21-1.35,23.49,4.66,32.3,12.6a1.5,1.5,0,0,0,2.12-2.12l-1.06-.92c-8.82-7.64-19.31-12.93-31.24-12.69-10.9.22-20.89,5.8-28.59,13.2a62.88,62.88,0,0,0-18.37,38.23c-16.5-3-39.21,3.83-47.12,19.48-11.14-8.46-24.64-13.18-39.49-10.81-14.64,2.34-27.83,10.47-37.73,21.58-5.17-10.65-11.68-20.56-21.94-27-13.12-8.17-28.86-6.81-42.67-1.33A83.31,83.31,0,0,0,664,252.18c-15.41-17.94-47-11.05-58.9,8.18-.46-11.38-3.81-22.48-11.2-31.44-8.37-10.15-21.44-13.7-34.07-14.28-24.33-1.12-53.86,8.47-68.4,29.12a82.44,82.44,0,0,0-22.22-13.34c-15.26-6-33.06-5.87-49.45-3.35-4.3-10.69-11.68-19.71-23.41-22.28-11.9-2.61-24.08,2.93-33.57,9.77-3.39-3.81-6.52-7.73-10.87-10.55-4.11-2.67-9.45-3.32-14.22-3.47-9.37-.29-19.71,2.64-27.1,8.65-3.58-10.11-10.86-18.58-18.6-25.82a96.57,96.57,0,0,0-30.54-19.68c-9-3.48-19.21-2.95-28.51-1.33-8,1.38-16.3,4.31-22.38,9.81A39.89,39.89,0,0,0,204.3,143a35.05,35.05,0,0,0-20.12-14.6c-4-1.12-8.85-1.27-12.5.61,10.06-44.3-47.85-92.48-88.81-70.39,3.68-9.07,4.49-18.84.69-28.24C79.43,20.16,70.64,12.53,61.11,7.46,43.29-2,16.14-4.43,1.58,12c-.36.41-.72.81-1.06,1.24a1.64,1.64,0,0,0,1.06,2.63,1.21,1.21,0,0,0,1.06-.51C15.77-1,40.77,1.07,57.91,9.2c9.05,4.29,17.1,11,21.81,20,5.51,10.46,3.75,22.39-1.56,32.52-.65,1.25.73,3,2.05,2.05C120.94,36,183.73,89.27,167,134.11c-.59,1.59,2.05,2.71,2.74,1.16,3-6.76,11.64-4.87,17.19-2.85,7.64,2.79,13.21,9,17.12,15.93,7.65,13.53,4.53,30-4.71,41.74a54.05,54.05,0,0,0-27.83-22.57c-10.06-3.57-28-4.28-37.06,3.72,1.3-13.19-3.48-27.19-8.94-38.76-7.07-15-17.27-26.85-31.72-35A122.11,122.11,0,0,0,45.7,82.94c-15.22-1.41-31.65.65-44.12,10-.35.26-.71.51-1.06.79-1.17.94-.15,2.4,1.06,2.47a1.53,1.53,0,0,0,1.06-.35c12-9.63,28.22-11.12,43.06-9.94a118.44,118.44,0,0,1,46.62,14.17c13.31,7.26,22.41,18,29.37,31.34,6.84,13.11,12.64,30.31,8.77,45.25a16.67,16.67,0,0,0-1.16,3.68,1.5,1.5,0,0,0,2.89.8c.43-1.13.8-2.28,1.11-3.44,5.81-12.54,28.06-10.66,38.74-6.87,18.07,6.41,30.11,24.1,32.72,42.62-31-.28-62.4,10.65-86.79,29.29-3.29,2.52-6.43,5.23-9.45,8.06C98.66,204.4,44.17,185.69,1.58,192.64l-.4.06c-1.76.29-1.2,2.79.4,2.91a1.67,1.67,0,0,0,.4,0c41.95-7,96.05,11.84,104.15,58.61a1.22,1.22,0,0,0,1.34,1.08,1.39,1.39,0,0,0,1.17-.42c25.19-24.47,61.14-38.9,96.54-38.38.48,1.33,2.54,1.37,2.86.09a115.65,115.65,0,0,1,37.66,7.63,143.64,143.64,0,0,1,28.81,15.46,1.74,1.74,0,0,0,.94.65,220.16,220.16,0,0,1,29.78,25.15c12.84,12.81,24.94,27.77,32.7,44.49a1.21,1.21,0,0,0,.39.83,98.87,98.87,0,0,1,4.44,11.67c-18.63,12.81-28.54,37.27-32.62,60a1.66,1.66,0,0,0,0,.39c.09,1.6,2.6,2.17,2.91.4l.08-.4c5.69-31.17,22.12-65,57.89-66.33,11.61-.44,23.29,2.8,33.47,8.29,9.76,5.26,17.86,13.69,26.1,21a1.52,1.52,0,0,0,2.51-.66c5.18-13.42,9.61-27,18.58-38.4a105.06,105.06,0,0,1,58-37.08c23.7-5.57,48.92-.09,67.33,16,18.93,16.56,30.48,41.94,35.2,66.27.35,1.79,2.78,1.16,2.95-.4.69-6.5,8.71-9.75,14-11.39,8.84-2.72,18.55-2.9,27.63-1.5,10,1.54,19.7,5.46,27.27,12.23,9.13,8.17,12.95,20,13.06,32h0a1.5,1.5,0,0,0,3,0h0c-.12-12.64-4.13-24.59-13.32-33.5-7-6.76-16.17-10.82-25.61-12.88.42-13.62,5.29-25.93,15.23-35.47,8.78-8.42,20.51-13.33,32.19-16.1,13.63-3.23,27.26-1.28,38.17,7.86,9.92,8.32,15.47,20.89,18.38,33.25a1.21,1.21,0,0,0,.29.81,1.39,1.39,0,0,0,1.62.5,1.45,1.45,0,0,0,1.06-1c7.82-23.37,40.79-30.8,57.7-12.58a69.77,69.77,0,0,0-1.48,16.78,87.37,87.37,0,0,0,3.58,21.18c-10.4,7-17.94,17.58-19.3,31.15h0c-.19,1.92,2.81,1.91,3,0h0c1.26-12.57,8.33-22.34,18.08-28.84a1.55,1.55,0,0,0,1.46-.94c18.44-11.38,45.49-11.61,61.71,2.18a1.51,1.51,0,0,0,2.36-1.82c-9.49-18.58-2.38-41.16,15.13-52.09,14.76-9.21,38.78-2.83,50.17,9.46a1.33,1.33,0,0,0,1.06.47,1.56,1.56,0,0,0,1.06-2.59c-.34-.37-.7-.73-1.06-1.08C954.9,301,945.44,297.34,936.49,295.25Zm-53.36-62.69a55.91,55.91,0,0,0,3.41,23.14,98.57,98.57,0,0,0-11,3.33,85.61,85.61,0,0,0-20.52,10.9,80.87,80.87,0,0,0-16.41-19C845.93,236.1,867.64,229.52,883.13,232.57Zm-675.34-19A59.61,59.61,0,0,0,201,192.84a45.72,45.72,0,0,0,8.1-14.61,1.63,1.63,0,0,0,.26-.28c5.82-8.07,16.31-11.29,25.68-12.92,8.91-1.55,18.27-1.32,26.75,2,10.43,4,19.92,11,28.13,18.49,8,7.26,15.48,16.2,18.55,26.72a1.38,1.38,0,0,0,1.1,1,1.4,1.4,0,0,0,1.41-.36c6.72-6.38,16.35-9,25.42-9.33a27.43,27.43,0,0,1,14,3.05c4.55,2.45,7.7,7.28,11.1,11a1.48,1.48,0,0,0,1.82.23c8.92-6.65,19.72-11.92,31.14-10.37,11.05,1.5,18.27,10.34,22.29,20.07-2,.35-4,.72-5.93,1.13A100.49,100.49,0,0,0,363,253.5C349.12,219,302.68,214.87,275.76,237a170.08,170.08,0,0,0-22.92-13A115.38,115.38,0,0,0,207.79,213.57Zm70.54,25.21c25.6-20.53,70-16.46,82.28,16.94l-.27.25c-13.54,13.31-19.75,30-21.9,48.32-7.24-13.9-17.28-26.46-27.94-37.71A208.8,208.8,0,0,0,278.33,238.78ZM442,315.31c-3.45,6-5.6,13.1-8.14,19.52q-1.44,3.65-2.86,7.31c-8.26-7.44-16.46-15.47-26.33-20.66a68.86,68.86,0,0,0-35.3-7.94,51,51,0,0,0-24,7.22,101.07,101.07,0,0,0-4.42-11.37,106.11,106.11,0,0,1,5.81-28.17c3.35-9.23,9.68-17.15,16.59-24a1.34,1.34,0,0,0,.34-.34c13.37-13.12,29.8-21.27,48-25.33,17.77-4,37.83-4.64,55.24,1.17A71.53,71.53,0,0,1,490,246.34a1.58,1.58,0,0,0,1.56,1.36,82.15,82.15,0,0,1,16,19.27c-16.46,4-31.82,12.53-44.58,23.53A97.92,97.92,0,0,0,442,315.31Zm80.65-50.64a85.48,85.48,0,0,0-12,1.61,82,82,0,0,0-16.89-20.56c13.35-19.33,40-27.78,62.46-28.13,12.33-.19,24.76,2.65,33.8,11.49,9.9,9.68,12.81,24.62,12.08,37.93-.1,1.77,2.42,1.93,2.95.4,7.44-21.48,41.88-31.58,57-13-.81.95-1.61,1.91-2.37,2.9-8.13,10.54-12.89,23.34-16.05,36.19-7.38-8.47-16.53-15.37-27.88-17.26-12.17-2-23.6,3.5-32.91,10.85C567.08,271,545,263.32,522.67,264.67Zm186.26,17c-12.74,2.68-25,8.29-34.66,17.12-10.49,9.62-15.54,23-16.09,37l-1.45-.24a64.43,64.43,0,0,0-30.3,2.24c-4.62,1.58-9.72,4.24-12.44,8.41-4.83-20.9-14.59-41.15-29.12-57,9-7.12,19.68-11.87,31.4-9.91,11.16,1.86,20.16,10,27.05,18.43a1.51,1.51,0,0,0,2.51-.66c2.82-12.29,7-24.14,13.91-34.75,7.63-11.68,18.85-19.9,31.21-26,13.79-6.84,29.48-9,43.47-1.59,10.83,5.76,17.41,16.79,22.51,27.54a73.67,73.67,0,0,0-13.24,24.41C733.36,280.2,721,279.18,708.92,281.71ZM767,321.19c-3.41-12-9.38-23.27-19-31.37-.55-.46-1.11-.89-1.67-1.31,6.61-22.3,25.4-41.83,48.42-46.89,24.42-5.37,45.63,10.39,58,30.11a72.86,72.86,0,0,0-26,38.49C808.94,293.08,777.59,299.74,767,321.19Z"/><path class="cls-15" d="M161.21,291.33C115.69,266.61,62.26,257.85,11,262.16c-3.13.26-6.26.61-9.39,1h0c-1.9.22-1.92,3.23,0,3h0c52.07-6.14,106.08,1.48,153.11,25.16,38.23,19.25,72.18,50.52,86.85,91.5l.15.4c.59,1.67,3.11,1.13,3-.4a1.54,1.54,0,0,0-.08-.39C230.32,342.14,198.15,311.39,161.21,291.33Z"/><path class="cls-16" d="M146.36,298.41C102.1,276,50.5,269.24,1.58,275.5c-1.89.24-1.92,3.25,0,3,48.15-6.17,98.21.44,142,21.87,35.21,17.23,66.72,45.33,81.18,82.44l.16.4c.64,1.65,3.15,1.11,3-.4a1.55,1.55,0,0,0-.09-.39C213.24,344.64,181.9,316.4,146.36,298.41Z"/><path class="cls-17" d="M210.65,382.06c-14.48-34.13-43.94-59.31-76.8-75.14C93.09,287.29,46.14,281.81,1.58,288l-.4.05c-1.77.25-1.2,2.74.4,2.9a1.65,1.65,0,0,0,.4,0c44-6.17,90-.49,130.35,18.58,32.24,15.24,61,40.13,75.39,73.3l.34.76c.64,1.51,2.61.62,2.71-.76A1.59,1.59,0,0,0,210.65,382.06Z"/><path class="cls-18" d="M194.67,382.05c-14.34-30.66-41.68-53-72-66.89C85.15,297.9,42.22,293.46,1.58,299.63l-.4.06c-1.77.27-1.2,2.77.4,2.9a1.66,1.66,0,0,0,.4,0C71.1,292,159.26,314.65,191.71,382.81l.37.76c.7,1.49,2.66.61,2.74-.76A1.56,1.56,0,0,0,194.67,382.05Z"/><path class="cls-19" d="M180.87,382.05C148.59,319.13,66.5,298.9,1.58,309.62l-.4.06c-1.76.29-1.2,2.79.4,2.91a1.67,1.67,0,0,0,.4,0c63.45-10.61,143.93,9,175.9,70.23l.4.76c.75,1.46,2.72.59,2.76-.76A1.52,1.52,0,0,0,180.87,382.05Z"/><path class="cls-20" d="M165.86,382.05C134.14,326.73,60.42,309.64,1.58,320.4l-.4.07c-1.76.33-1.2,2.83.4,2.91a1.64,1.64,0,0,0,.4,0c57.32-10.62,129.51,5.83,160.85,59.44l.45.76a1.51,1.51,0,0,0,2.79-.76A1.47,1.47,0,0,0,165.86,382.05Z"/><path class="cls-21" d="M1.58,331.89l-.4.08c-1.75.37-1.19,2.87.4,2.92a1.65,1.65,0,0,0,.4,0c50.75-10.61,114.11,2.48,144.58,47.95.17.26.36.5.53.76a1.55,1.55,0,0,0,2.83-.76,1.4,1.4,0,0,0-.24-.75C118.71,334.89,53.93,321.08,1.58,331.89Z"/><path class="cls-22" d="M1.58,342.82l-.4.09c-1.74.41-1.19,2.92.4,2.93a1.64,1.64,0,0,0,.4,0c44.42-10.57,99.42-.63,128.82,37,.2.26.41.5.61.76a1.61,1.61,0,0,0,2.88-.76,1.31,1.31,0,0,0-.29-.75C104,342.75,47.7,332,1.58,342.82Z"/></g></g></svg>