<svg xmlns="http://www.w3.org/2000/svg" viewBox="0 0 653.03 535.84"><defs><style>.cls-1{fill:#808184;}.cls-2{fill:#848ec9;}.cls-3{fill:#d0d2d3;}.cls-4{fill:#e6e7e8;}.cls-5{fill:#f9ec31;}.cls-6{fill:#ffebd4;}.cls-7{fill:#f6921e;}.cls-8{fill:#231f20;}.cls-9{fill:#be1e2d;}.cls-10{fill:#fff;}.cls-11{fill:#fdc;}.cls-12{fill:#3b2314;}</style></defs><title>monkey_rocket</title><g id="Layer_2" data-name="Layer 2"><g id="rocket"><path class="cls-1" d="M127.12,275.35a2.29,2.29,0,0,0,4.14,1.93C132.36,274.56,128.22,272.61,127.12,275.35Z"/><path class="cls-1" d="M157.71,209.75a2.29,2.29,0,0,0,4.14,1.93C162.95,209,158.81,207,157.71,209.75Z"/><path class="cls-2" d="M41.48,172.25c-3.24.65-6.48,1.34-9.69,2.13A109.2,109.2,0,0,0,13,180.46c-3.17,1.43-7.57,3.32-9.23,6.64-2.44,5.62,1.59,14.29,3.67,19.41a174.89,174.89,0,0,0,9.21,19Z"/><path class="cls-3" d="M151.93,168.42l-5.1,10.93L84.7,312.6A329.21,329.21,0,0,0,112,335.85l12.9-27.66,62.43-133.88A315.25,315.25,0,0,0,151.93,168.42ZM111.51,314.24c-2.43-1.29-4-4.39-2.56-7,1.29-2.43,4.39-4,7-2.56a5.37,5.37,0,0,1,2.73,6.46,1.49,1.49,0,0,1-.17.57,1.53,1.53,0,0,1-.23.39C116.9,314.27,114,315.57,111.51,314.24Zm22.25-35.31c-1.4,2.2-4.3,3.5-6.79,2.17s-4-4.39-2.56-7c1.29-2.43,4.39-4,7-2.56a5.37,5.37,0,0,1,2.73,6.46,1.49,1.49,0,0,1-.17.57A1.52,1.52,0,0,1,133.75,278.93Zm30.59-65.6c-1.4,2.2-4.3,3.5-6.79,2.17s-4-4.39-2.56-7c1.29-2.43,4.39-4,7-2.56a5.37,5.37,0,0,1,2.73,6.46,1.5,1.5,0,0,1-.17.57A1.55,1.55,0,0,1,164.34,213.34Z"/><path class="cls-1" d="M111.67,308.49a2.29,2.29,0,0,0,4.14,1.93C116.91,307.69,112.77,305.75,111.67,308.49Z"/><path class="cls-4" d="M502.39,366.48l-.2-.07-42.45-19.79L437.14,395.1l42.43,19.79a1.27,1.27,0,0,1,.87,1.23c.26,6.57-.13,14.47-3.34,20.34-5.84,10.7-16.62,4-24.35-1a124.16,124.16,0,0,1-24.58-21.12l-14.85,31.84c11,4.21,21.87,8.65,32.78,12.9,8.76,3.41,17.52,6.83,26.24,10.35L496.79,417l24.45-52.42q-6-3.19-11.93-6.43c-1.75,2.65-3.52,5.28-5.34,7.87A1.21,1.21,0,0,1,502.39,366.48Z"/><path class="cls-5" d="M536.08,415.08c-.2,1.72-1.61,3.76-2.31,5.28q-2.62,5.68-5.33,11.31c-1.8,4-3.62,7.93-5.48,11.87-.41.88-.8,2.06-1.31,3.11a28.06,28.06,0,0,0,1.7,6.75,5.77,5.77,0,0,0,3.75,3.27,24.11,24.11,0,0,1-.69-6.87c0-1.89,2.91-2.24,3-.28-.06-1.42,5.33-.94,6.12-.7,1.75.55,2.22,3.15,2.36,4.66.56,5.86,3.82,8.8,7.5,11.79a8.52,8.52,0,0,0-.12-3.85c-1.24-3.2-3.05-6-1.57-9.42a1.52,1.52,0,0,1,2-.73,7.93,7.93,0,0,1,4.28,4.29c.57,1.24,1,2.49,1.56,3.75,1.34,3.27,3.73,3.52,6.6,4.09a65.61,65.61,0,0,1,15.94,5c-.63-2.42-5.26-3.77-7.14-4.91-1.65-1-3.93-3.45-1.33-5.06,3.71-2.29,7.59-.89,11.35.69A37.12,37.12,0,0,0,592.87,462c-2.56-1.09-6-1.38-8.06-2.49a68.77,68.77,0,0,1-12.57-8.36c-1.76-1.56-1.82-3.44,0-4.86a4.23,4.23,0,0,1,2-.82,21.64,21.64,0,0,1-5.64-4.65c-3.54-4.16-8.13-10.22-14.36-9.15-1.59.27-2.08-1.87-1-2.73a22.57,22.57,0,0,1,5-3.09C550.82,422.12,544.85,415.48,536.08,415.08Z"/><path class="cls-2" d="M502.32,363.16c5-7.21,9.76-14.63,14.27-22.16,7.32-12.23,16.38-26.22,18.63-40.56,1-6.23-.62-9.25-6.91-10.81-8-2-16.41-1.06-24.27,1.21-25,7.2-49.57,24.52-68.31,41.28Z"/><path class="cls-6" d="M548.46,371.44c.26.26.53.15,0,0Z"/><path class="cls-2" d="M428.38,410.06a1.52,1.52,0,0,1,1,1.11,125.31,125.31,0,0,0,16.41,15.62c6.44,5.07,24,20.41,29.26,7a43.07,43.07,0,0,0,2.44-16.55l-65-30.31A127.42,127.42,0,0,0,428.38,410.06Z"/><path class="cls-4" d="M86.88,300.81l61.89-132.72a398.46,398.46,0,0,0-58.18-1.38,340.15,340.15,0,0,0-45.47,4.83L18.44,228.75q2.86,5,5.9,9.8a384.64,384.64,0,0,0,58.06,71.85Z"/><path class="cls-3" d="M426,411.88a129.6,129.6,0,0,1-18.25-27.65c-.59-1.22.95-2.38,2-1.87l24.62,11.48L457,345.35l-24.62-11.48a1.51,1.51,0,0,1-.51-2.33c3.78-3.43,7.71-6.74,11.74-10q-6.94-4.28-13.7-8.86l-56,120.12c3.48,1,7,2,10.41,3.1,8.81,2.74,17.52,5.87,26.17,9.15Z"/><path class="cls-2" d="M531.89,375.39c-4.14,1.12-8.34,1.63-12.53.33l-19.84,42.56-19.84,42.55c3.74,2.4,6,6,7.79,9.85Z"/><path class="cls-2" d="M431.75,491.89c2.9,2.15,7,5.57,10.74,3.11a22.29,22.29,0,0,0,6-6.25c4.46-6.63,7.62-14,10.5-21.48q-24.89-10-50-19.4C412.6,463.61,418.4,482,431.75,491.89Z"/><path class="cls-7" d="M636.56,481.18c-1.75-4.4-3.47-8.69-7.14-11.87-2.37-2.05-4.85-3.93-7.13-6.09a1.51,1.51,0,0,1,1.61-2.5c5.55,2.4,9.58.35,14.75-1.79l.44-.18a18.22,18.22,0,0,1-4.37-1.82,36.56,36.56,0,0,1-9.21-7.7c-3.75-4.47-10.52-14.14-17.13-11.24-.87.62-1.74,1.23-2.61,1.83-1.36.93-3.27-1-2-2.21.1-.09.2-.16.3-.25h0l.13-.09a11.57,11.57,0,0,1,2.09-1.46c4.57-3.24,9.09-6.7,13.92-9.55-6.29.68-12.19.1-17.94-4.83-5.41-4.65-15.73-15.39-23.08-8.52A1.5,1.5,0,0,1,576.9,411c3.74-5.28,6.48-11.55,11.83-15.49,3.11-2.29,6.32-4.42,9.55-6.51a184.91,184.91,0,0,1-29.87,3.44c-4.53.08-9.12.13-13.54-1-4.22-1.08-6.7-.23-10.1,2.29-.57,1.35-1.13,2.67-1.65,4-2,4.85-4,9.67-6,14.48A22.49,22.49,0,0,1,549,416.3c4.63,3.34,9,7,14.41,8.53a15,15,0,0,1,4,.66,1.5,1.5,0,0,1-.5,3,19,19,0,0,1-3.67-.57,10.24,10.24,0,0,0-4.62,1.14,18.64,18.64,0,0,1,8.15,5.29c2.1,2.21,3.85,4.92,6.2,6.87,3.07,2.55,6.78,3.79,10.29,5.58a1.51,1.51,0,0,1-.88,2.84c-1.71-.17-10.13-1.83-5.76,1.25,3.14,2.21,6.45,4.92,10.07,6.28,3.46,1.3,9.1,1.82,11.24,5.2a1.52,1.52,0,0,1-1.09,2.35,40.64,40.64,0,0,1-14.1-.51c-3.36-.63-6.24-2.21-9.46-3.26-1.41-.46-7.34-1.25-3.39.71a37.74,37.74,0,0,1,4.39,2.37,6.22,6.22,0,0,1,2.68,3.25c.31.91-.24,2.48.7,3.13,1.39,1-.16,3.37-1.61,2.5-6.92-4.17-14.46-4.63-21.83-7.27a8.36,8.36,0,0,1-4.91-3.84c-1.3-2.12-1.5-4.84-3.21-6.59.19,2.27,2.11,4.45,2.34,6.65.19,1.8-.53,5,.63,6.3.84.94,1.56,1.66,2.33,2.62,1.23,1.52-1.22,3.13-2.47,1.71-4.88-5.57-12.76-8-13.79-16.35-.11-.89-.24-5-1.79-4.68q-1.17.25-2.31.58a16.48,16.48,0,0,1-1.61.35,13.85,13.85,0,0,0,1.67,6.37c.63,1.13-.46,3.1-1.87,2.21-2.95-1.86-6.89-1.86-8.33-5.52a39.71,39.71,0,0,1-1.6-5q-3.86,7.68-7.9,15.25c-1.59,3-3.19,6.26-4.94,9.51.26,7.3,5.92,3.3,9.9,6.77,4.69,4.08,3.23,10.94,5.54,16.09,4.06,9.07,14.66,12.13,19.6,20.13a19.12,19.12,0,0,0-.07-3.86c-.44-3.26-6-3.84-6.93-7.23a36.3,36.3,0,0,1,.67-21.81c.44-1.3,2.35-1,2.77.12,2.18,5.82,4.7,11.71,8.58,16.63s8,7.57,13.22,10.48c7.85,4.36,12.28,11.28,14.7,19.65,2.87-3.26-2.07-13.36-3-16.74-1.92-7.06-4.5-14.63-2.07-21.86.38-1.15,2-1,2.59-.22,3.45,4.56,7,14.4,14.24,10,2.85-1.72,5.54-3.07,8.94-2.51s5.9,4.41,8,6.8a23.85,23.85,0,0,0,8.61,5.74,11.49,11.49,0,0,1-2.47-4.6c-1.4-5.76.07-12-2.81-17.4-.66-1.23.41-2.91,1.87-2.21,3.93,1.88,10.6,5.47,14.95,3.28,3.29-1.66,6.48-3.47,10.28-3.58a26,26,0,0,1,7.53.89A34.45,34.45,0,0,1,636.56,481.18Z"/><path class="cls-1" d="M413.53,320.69c1.1-2.73-3-4.67-4.14-1.93A2.29,2.29,0,0,0,413.53,320.69Z"/><path class="cls-4" d="M427.43,311c-21.11-14.45-41.19-30.53-62.08-45.22-40.43-28.44-83-54-127.89-74.69A251.08,251.08,0,0,0,190.36,175L176.7,204.3,114.49,337.7q3.4,2.53,6.86,5c23.09,16.19,48.81,27.46,74.9,37.92q37.85,15.18,77.08,26.53c32.26,9.34,65.37,15.8,97.68,24.92Zm-13.74,3.92a5.37,5.37,0,0,1,2.73,6.46,1.48,1.48,0,0,1-.17.57,1.54,1.54,0,0,1-.23.39c-1.4,2.2-4.3,3.5-6.79,2.17s-4-4.39-2.56-7C408,315.06,411.06,313.53,413.69,314.93ZM363.44,422.7c-2.43-1.29-4-4.39-2.56-7,1.29-2.42,4.39-4,7-2.56a5.37,5.37,0,0,1,2.73,6.46,1.47,1.47,0,0,1-.17.57,1.55,1.55,0,0,1-.23.39C368.83,422.72,365.93,424,363.44,422.7Zm18.79-27.89c-1.4,2.2-4.3,3.5-6.79,2.17s-4-4.39-2.56-7c1.29-2.42,4.39-4,7-2.56a5.37,5.37,0,0,1,2.73,6.46,1.48,1.48,0,0,1-.17.57A1.55,1.55,0,0,1,382.23,394.8Z"/><path class="cls-2" d="M504,473.11c2.41-4.24,4.61-8.62,6.82-12.85q5.22-10,10.14-20.06,2.25-4.91,4.54-9.81t4.63-9.85c3.13-7.07,6.2-14.16,9.12-21.32.88-2.15,1.81-4.33,2.73-6.53a1.4,1.4,0,0,1,.38-.91c2.46-5.94,4.81-12.06,5.84-18.25a6.8,6.8,0,0,0,.18-2.13,5.58,5.58,0,0,0-.66-.12,9.05,9.05,0,0,0-2.8.07,36.55,36.55,0,0,0-5.3,1.5c-1.27.44-2.56.9-3.85,1.34L489,474.41c.62,1.59,1.22,3.18,1.86,4.75a18.74,18.74,0,0,0,2.83,5.41c.39.44,1.44.92,1.46,1.16a9.15,9.15,0,0,0,1.59-1.69A79.51,79.51,0,0,0,503.5,474,1.53,1.53,0,0,1,504,473.11Z"/><path class="cls-1" d="M375.6,391.22a2.29,2.29,0,0,0,4.14,1.93C380.84,390.42,376.7,388.48,375.6,391.22Z"/><path class="cls-1" d="M363.61,416.94a2.29,2.29,0,0,0,4.14,1.93C368.84,416.15,364.71,414.2,363.61,416.94Z"/><path class="cls-8" d="M409.23,324.51c2.49,1.33,5.39,0,6.79-2.17a1.54,1.54,0,0,0,.23-.39,1.48,1.48,0,0,0,.17-.57,5.37,5.37,0,0,0-2.73-6.46c-2.63-1.4-5.73.13-7,2.56C405.27,320.12,406.8,323.22,409.23,324.51Zm4.3-3.82a2.29,2.29,0,0,1-4.14-1.93C410.49,316,414.63,318,413.53,320.69Z"/><path class="cls-8" d="M375.44,397c2.49,1.33,5.39,0,6.79-2.17a1.55,1.55,0,0,0,.23-.39,1.48,1.48,0,0,0,.17-.57,5.37,5.37,0,0,0-2.73-6.46c-2.63-1.41-5.73.13-7,2.56C371.48,392.58,373,395.68,375.44,397Zm4.3-3.82a2.29,2.29,0,0,1-4.14-1.93C376.7,388.48,380.84,390.42,379.74,393.15Z"/><path class="cls-8" d="M127,281.1c2.49,1.33,5.39,0,6.79-2.17a1.52,1.52,0,0,0,.23-.39,1.49,1.49,0,0,0,.17-.57,5.37,5.37,0,0,0-2.73-6.46c-2.63-1.41-5.73.13-7,2.56C123,276.71,124.53,279.81,127,281.1Zm4.3-3.82a2.29,2.29,0,0,1-4.14-1.93C128.22,272.61,132.36,274.56,131.26,277.28Z"/><path class="cls-8" d="M111.51,314.24c2.49,1.33,5.39,0,6.79-2.17a1.53,1.53,0,0,0,.23-.39,1.49,1.49,0,0,0,.17-.57,5.37,5.37,0,0,0-2.73-6.46c-2.63-1.4-5.73.13-7,2.56C107.54,309.85,109.08,312.95,111.51,314.24Zm4.3-3.82a2.29,2.29,0,0,1-4.14-1.93C112.77,305.75,116.91,307.69,115.81,310.42Z"/><path class="cls-8" d="M157.55,215.5c2.49,1.33,5.39,0,6.79-2.17a1.55,1.55,0,0,0,.23-.39,1.5,1.5,0,0,0,.17-.57,5.37,5.37,0,0,0-2.73-6.46c-2.63-1.4-5.73.13-7,2.56C153.59,211.12,155.12,214.21,157.55,215.5Zm4.3-3.82a2.29,2.29,0,0,1-4.14-1.93C158.81,207,162.95,209,161.85,211.68Z"/><path class="cls-8" d="M363.44,422.7c2.49,1.33,5.39,0,6.79-2.17a1.55,1.55,0,0,0,.23-.39,1.47,1.47,0,0,0,.17-.57,5.37,5.37,0,0,0-2.73-6.46c-2.63-1.41-5.73.13-7,2.56C359.48,418.31,361,421.4,363.44,422.7Zm4.3-3.82a2.29,2.29,0,0,1-4.14-1.93C364.71,414.2,368.84,416.15,367.75,418.87Z"/><path class="cls-8" d="M652.56,495.53c-2.76-2.85-6.41-4.56-9-7.56-2.94-3.34-4.22-8.14-5.91-12.18-1.94-4.65-5.25-7.73-8.78-10.78a11.3,11.3,0,0,0,3.18-.32c4.52-1.13,10.66-6,15.18-3.24,1.71.95,2.89-1.74,1.27-2.72a9,9,0,0,0-1-.51c-5-2.47-10.36-2.88-15.13-6.5-4.11-3.12-6.81-7.61-10.37-11.28-2.68-2.76-5.92-4.94-9.26-5.58,5.94-4.28,12-8.45,19-10.51,1.63-.48,1-3.18-.65-2.9-6.33,1-12.68,3-19.14,2-6-.93-11-7.41-15.69-10.9-4.24-3.12-9.22-5.48-13.92-4.53,2.32-3.67,4.64-7.3,8.08-10.13,4.9-4,10.63-7.2,16-10.62,1.22-.78.51-3-1-2.73-13.07,2.51-25.74,4.61-39.08,4.86-5,.09-9.27-1-14.11-1.7a8.92,8.92,0,0,0-5.4,1.05c2.16-5.31,4.09-10.85,4.53-16.25.27-3.38-1.84-4.26-5-4.33-8.94-.19-16.59,7.45-25.66,4.76l3.93-8.42a1.52,1.52,0,0,0-.73-2c-4.31-2.28-8.59-4.61-12.87-6.93q4.29-6.62,8.35-13.38c7.44-12.37,15.51-25.77,18.63-40,.84-3.84,1.28-8.81-1.53-12-3.67-4.14-11.7-4.62-16.79-4.73-16.7-.35-33.26,8.11-47.28,16.33a245.57,245.57,0,0,0-26.23,17.77l-.11-.09c-5.18-3.17-10.28-6.48-15.32-9.87a1.67,1.67,0,0,0-1.06-.71c-25.44-17.21-49.43-36.76-74.75-54.08Q323,233.11,289.38,214.25c-24.63-13.76-50.05-27.39-77-36.1C168.76,164,121.29,161,75.75,164.65c-17.18,1.39-34.46,3.83-51.07,8.52C17.38,175.23,4.84,178.23,1,185.83c-3.49,8,2.65,19.93,5.85,27,7.5,16.65,17.56,32.2,28.22,47a394.35,394.35,0,0,0,46.24,53.64,1.57,1.57,0,0,0,1.05,1,324.56,324.56,0,0,0,28.36,24.15,1.53,1.53,0,0,0,2.24,1.68,280.81,280.81,0,0,0,27,17.74c24.79,14.27,52.33,24.66,79.14,34.46,23.4,8.56,47.22,15.91,71.26,22.43,19.56,5.31,39.29,10,59,14.75,15.13,3.69,30.35,7.38,45,12.74q5.64,2.06,11.27,4.16c4.17,18.61,11,39.68,28.11,50.22,14.55,9,24-17.84,28-28.45l10.71,4.32a1.52,1.52,0,0,0,2-.73l3.92-8.41c3.79,2.52,5.78,6.48,7.43,10.69a1.38,1.38,0,0,0,.58,1.51,52.38,52.38,0,0,0,4.35,9.85c1.75,2.73,4.33,4.27,6.86,1.91a39.45,39.45,0,0,0,6.55-8.42,6.31,6.31,0,0,0,4.42,3.93c1.85.51,3.84.45,5.65,1.05,3.28,1.08,3.37,9.14,4,11.92,2.79,13.15,20.09,15.22,22.56,28.14.3,1.59,2.7,1.89,3,.11.63-4.19,2.07-10.43-.94-14a8.38,8.38,0,0,0-2.64-1.73c-2.93-1.5-3.23-3.64-3.76-6.72a29.91,29.91,0,0,1,.38-11.34c3.39,8,7.87,15.4,14.91,20.76,3.76,2.86,8.25,4.32,11.86,7.44,4.75,4.1,7.06,10.26,8.54,16.17a1.51,1.51,0,0,0,1.92.9c6.38-1.74,4.17-9.4,2.64-14-2.39-7.16-6.33-16.25-5.24-24.09,3.71,5.62,8.15,12.8,15.59,8.53,2.62-1.5,5.1-3.52,8.42-2.2,2.72,1.08,4.42,4.5,6.42,6.51,4.32,4.35,10.56,6.06,16,8.5a1.51,1.51,0,0,0,1.61-2.5c-1.73-1.64-3.58-3.17-5.18-4.95-2.49-2.76-2.68-6.29-2.85-9.82a38.66,38.66,0,0,0-1-8.46c4.74,2.07,10.14,3.72,14.81,1.36,9-4.57,17.44-3,25.38,3.12A1.5,1.5,0,0,0,652.56,495.53Zm-635.93-270a174.89,174.89,0,0,1-9.21-19c-2.07-5.12-6.1-13.79-3.67-19.41,1.66-3.32,6.06-5.21,9.23-6.64a109.2,109.2,0,0,1,18.81-6.08c3.21-.79,6.44-1.48,9.69-2.13Zm70.25,75.27-4.48,9.6a384.64,384.64,0,0,1-58.06-71.85q-3-4.83-5.9-9.8l26.68-57.22a340.15,340.15,0,0,1,45.47-4.83,398.46,398.46,0,0,1,58.18,1.38Zm38.06,7.38L112,335.85A329.21,329.21,0,0,1,84.7,312.6l62.14-133.25,5.1-10.93a315.25,315.25,0,0,1,35.44,5.89ZM371,432c-32.31-9.12-65.42-15.57-97.68-24.92q-39.17-11.35-77.08-26.53c-26.09-10.46-51.81-21.73-74.9-37.92q-3.46-2.43-6.86-5L176.7,204.3,190.36,175a251.08,251.08,0,0,1,47.11,16.1c44.92,20.74,87.45,46.25,127.89,74.69,20.89,14.69,41,30.78,62.08,45.22ZM504,290.83c7.86-2.26,16.26-3.19,24.27-1.21,6.29,1.56,7.88,4.59,6.91,10.81C533,314.77,523.91,328.77,516.59,341c-4.51,7.53-9.25,15-14.27,22.16l-66.59-31.05C454.48,315.34,479,298,504,290.83ZM384.34,436c-3.46-1.08-6.93-2.1-10.41-3.1l56-120.12q6.76,4.56,13.7,8.86c-4,3.21-8,6.52-11.74,10a1.51,1.51,0,0,0,.51,2.33L457,345.35l-22.61,48.49L409.8,382.36c-1.1-.51-2.64.65-2,1.87A129.6,129.6,0,0,0,426,411.88l-15.5,33.23C401.86,441.82,393.15,438.69,384.34,436Zm93.13-18.73A43.07,43.07,0,0,1,475,433.78c-5.24,13.43-22.82-1.91-29.26-7a125.31,125.31,0,0,1-16.41-15.62,1.52,1.52,0,0,0-1-1.11,127.42,127.42,0,0,1-15.91-23.15Zm-29,71.53a22.29,22.29,0,0,1-6,6.25c-3.69,2.46-7.84-1-10.74-3.11-13.35-9.89-19.15-28.29-22.77-44q25.1,9.4,50,19.4C456.1,474.7,452.93,482.12,448.47,488.75ZM496.79,417l-24.45,52.42c-8.72-3.52-17.48-6.94-26.24-10.35-10.91-4.25-21.8-8.69-32.78-12.9l14.85-31.84a124.16,124.16,0,0,0,24.58,21.12c7.74,5,18.51,11.71,24.35,1,3.21-5.87,3.6-13.77,3.34-20.34a1.27,1.27,0,0,0-.87-1.23L437.14,395.1l22.61-48.49,42.45,19.79.2.07A1.21,1.21,0,0,0,504,366c1.82-2.59,3.59-5.23,5.34-7.87q6,3.23,11.93,6.43Zm-9.34,53.68c-1.79-3.9-4-7.46-7.79-9.85l19.84-42.55,19.84-42.56c4.19,1.31,8.4.79,12.53-.33Zm61-99.24c.53.15.26.26,0,0ZM521,440.2q-4.95,10.09-10.14,20.06c-2.21,4.23-4.41,8.61-6.82,12.85a1.53,1.53,0,0,0-.5.87A79.51,79.51,0,0,1,496.76,484a9.15,9.15,0,0,1-1.59,1.69c0-.24-1.07-.72-1.46-1.16a18.74,18.74,0,0,1-2.83-5.41c-.63-1.56-1.23-3.16-1.86-4.75L535.75,374.2c1.29-.44,2.58-.89,3.85-1.34a36.55,36.55,0,0,1,5.3-1.5,9.05,9.05,0,0,1,2.8-.07,5.58,5.58,0,0,1,.66.12,6.8,6.8,0,0,1-.18,2.13c-1,6.18-3.37,12.31-5.84,18.25a1.4,1.4,0,0,0-.38.91c-.92,2.21-1.85,4.39-2.73,6.53-2.92,7.16-6,14.25-9.12,21.32q-2.33,4.91-4.63,9.85T521,440.2Zm112.6,48.57c-3.79.11-7,1.92-10.28,3.58-4.35,2.2-11-1.39-14.95-3.28-1.46-.7-2.53,1-1.87,2.21,2.88,5.37,1.41,11.65,2.81,17.4a11.49,11.49,0,0,0,2.47,4.6,23.85,23.85,0,0,1-8.61-5.74c-2.11-2.39-4.55-6.24-8-6.8s-6.09.79-8.94,2.51c-7.28,4.39-10.79-5.45-14.24-10-.62-.82-2.21-.93-2.59.22-2.43,7.24.15,14.8,2.07,21.86.92,3.38,5.86,13.48,3,16.74-2.42-8.36-6.85-15.29-14.7-19.65-5.25-2.91-9.45-5.7-13.22-10.48s-6.4-10.81-8.58-16.63c-.42-1.12-2.33-1.42-2.77-.12a36.3,36.3,0,0,0-.67,21.81c.95,3.39,6.49,4,6.93,7.23a19.12,19.12,0,0,1,.07,3.86c-4.93-8-15.54-11.06-19.6-20.13-2.31-5.16-.85-12-5.54-16.09-4-3.47-9.64.53-9.9-6.77,1.75-3.25,3.35-6.54,4.94-9.51q4.06-7.57,7.9-15.25a39.71,39.71,0,0,0,1.6,5c1.44,3.66,5.38,3.66,8.33,5.52,1.4.88,2.5-1.08,1.87-2.21a13.85,13.85,0,0,1-1.67-6.37A16.48,16.48,0,0,0,531,452q1.15-.33,2.31-.58c1.55-.31,1.69,3.79,1.79,4.68,1,8.32,8.91,10.77,13.79,16.35,1.25,1.43,3.7-.18,2.47-1.71-.77-1-1.49-1.68-2.33-2.62-1.16-1.3-.44-4.5-.63-6.3-.23-2.2-2.15-4.37-2.34-6.65,1.71,1.75,1.91,4.48,3.21,6.59a8.36,8.36,0,0,0,4.91,3.84c7.37,2.64,14.92,3.1,21.83,7.27,1.45.87,3-1.54,1.61-2.5-.94-.65-.39-2.22-.7-3.13a6.22,6.22,0,0,0-2.68-3.25,37.74,37.74,0,0,0-4.39-2.37c-3.94-2,2-1.17,3.39-.71,3.22,1,6.11,2.63,9.46,3.26a40.64,40.64,0,0,0,14.1.51,1.52,1.52,0,0,0,1.09-2.35c-2.15-3.38-7.78-3.91-11.24-5.2-3.62-1.35-6.93-4.07-10.07-6.28-4.37-3.08,4-1.41,5.76-1.25a1.51,1.51,0,0,0,.88-2.84c-3.51-1.79-7.22-3-10.29-5.58-2.35-1.95-4.1-4.65-6.2-6.87a18.64,18.64,0,0,0-8.15-5.29,10.24,10.24,0,0,1,4.62-1.14,19,19,0,0,0,3.67.57,1.5,1.5,0,0,0,.5-3,15,15,0,0,0-4-.66c-5.42-1.49-9.78-5.18-14.41-8.53a22.49,22.49,0,0,0-11.95-4.16c2.06-4.81,4.09-9.63,6-14.48.52-1.3,1.08-2.62,1.65-4,3.41-2.51,5.88-3.37,10.1-2.29,4.42,1.13,9,1.09,13.54,1A184.91,184.91,0,0,0,598.28,389c-3.24,2.09-6.44,4.22-9.55,6.51-5.35,3.94-8.08,10.21-11.83,15.49a1.5,1.5,0,0,0,2.28,1.94c7.35-6.87,17.66,3.88,23.08,8.52,5.75,4.93,11.65,5.51,17.94,4.83-4.83,2.85-9.35,6.31-13.92,9.55a11.57,11.57,0,0,0-2.09,1.46l-.13.09h0c-.1.09-.2.16-.3.25-1.27,1.19.63,3.13,2,2.21.87-.6,1.74-1.21,2.61-1.83,6.61-2.9,13.38,6.77,17.13,11.24a36.56,36.56,0,0,0,9.21,7.7,18.22,18.22,0,0,0,4.37,1.82l-.44.18c-5.17,2.13-9.2,4.19-14.75,1.79a1.51,1.51,0,0,0-1.61,2.5c2.27,2.16,4.76,4,7.13,6.09,3.67,3.18,5.39,7.47,7.14,11.87a34.45,34.45,0,0,0,4.54,8.47A26,26,0,0,0,633.57,488.77ZM554.2,431.72c6.23-1.07,10.83,5,14.36,9.15a21.64,21.64,0,0,0,5.64,4.65,4.23,4.23,0,0,0-2,.82c-1.78,1.42-1.73,3.3,0,4.86a68.77,68.77,0,0,0,12.57,8.36c2,1.11,5.5,1.4,8.06,2.49a37.12,37.12,0,0,1-15.93-2.94c-3.76-1.57-7.64-3-11.35-.69-2.6,1.61-.31,4.06,1.33,5.06,1.88,1.14,6.51,2.49,7.14,4.91a65.61,65.61,0,0,0-15.94-5c-2.87-.56-5.27-.82-6.6-4.09-.52-1.26-1-2.51-1.56-3.75a7.93,7.93,0,0,0-4.28-4.29,1.52,1.52,0,0,0-2,.73c-1.48,3.4.34,6.22,1.57,9.42a8.52,8.52,0,0,1,.12,3.85c-3.67-3-6.94-5.93-7.5-11.79-.14-1.51-.62-4.11-2.36-4.66-.79-.25-6.18-.73-6.12.7-.08-2-3-1.62-3,.28a24.11,24.11,0,0,0,.69,6.87,5.77,5.77,0,0,1-3.75-3.27,28.06,28.06,0,0,1-1.7-6.75c.5-1.05.89-2.23,1.31-3.11,1.86-3.94,3.68-7.9,5.48-11.87q2.7-5.64,5.33-11.31c.7-1.52,2.11-3.56,2.31-5.28,8.77.4,14.75,7,22.09,10.82a22.57,22.57,0,0,0-5,3.09C552.12,429.85,552.61,432,554.2,431.72Z"/></g><g id="character"><path class="cls-9" d="M343.21,84.53a23.59,23.59,0,0,0,10.62-4c2.72-1.81,8.3-7.62,1.34-8.13-6.12-.45-11.77-1.23-15.86-6.48-3.11-4-4.49-8.69-5.16-13.55-.91,2.09-1.7,4.13-2.34,6.05a54.82,54.82,0,0,0-2.67,13C330,78.85,334.78,85.18,343.21,84.53Z"/><path class="cls-10" d="M390.32,39a6.45,6.45,0,0,0,5-.46c2.92-1.47,5.39-4.35,5.46-7.67A19.28,19.28,0,0,0,393.59,32c-1.64.52-6.1,1.74-6.32,3.94C387.13,37.29,389.25,38.65,390.32,39Z"/><path class="cls-11" d="M341.71,113c19.48,6.63,42.26,1.26,55.6-14.73l0,0c-.93-1.67,1.52-3.4,2.47-1.71,3,5.4,11.37,7.9,17,9.06,7.38,1.51,15.54-.19,20.74-6.08s6.05-13.71,3.18-20.84c-3-7.36-8.81-11.34-16.62-8.25a1.41,1.41,0,0,1-1.89-.75,1.4,1.4,0,0,1,.45-1.87c5.78-4.06,9.65-10.42,12-17,2.51-6.88,1.16-13.51-2.74-19.62-6.38-10-16.51-18-28.36-20l-.24.18c-4.15,3.39-7.65,7.51-11.81,10.88-6.55,5.31-11.27,6.15-19,3.84a1.12,1.12,0,0,1-.46,0,17.57,17.57,0,0,1-7.61-1.58c-12.35.22-21.84,11.29-27.79,22.6.33,5.43.89,11.66,4.34,16.08,3.65,4.68,8,5.73,13.6,6.14,3,.22,6.06.69,7.2,3.81,1,2.77-1.27,5.68-3.1,7.43-5,4.77-13.43,8.3-20.34,6.47a15.42,15.42,0,0,1-9.23-6.37,62.41,62.41,0,0,0,11.36,30.67C340.89,111.9,341.31,112.46,341.71,113Zm71.45-20.87c.53.57,1.8,2.41,2.39,1a14.87,14.87,0,0,0,.86-3,31.19,31.19,0,0,1,1.08-4.86c1.09-2.93,4.71-4.15,7.6-3.7,6.11,1,14.33,8.23,8.41,14.29-1.34,1.38-3.64-.56-2.28-1.95,5.43-5.58-9.69-14.53-11.39-5.73-.48,2.5-.72,5.64-2.53,7.61-2,2.15-4.61.15-6.09-1.45C409.93,93,411.85,90.72,413.16,92.14ZM398.83,17.21A20.25,20.25,0,0,1,420.51,41a1.5,1.5,0,0,1-3-.5,17.21,17.21,0,0,0-18.45-20.3A1.5,1.5,0,0,1,398.83,17.21Zm3.59,10.89a1.46,1.46,0,0,1,.9.58,1.51,1.51,0,0,1,.34.77c.76,5-2.85,10-7.35,11.94-3.89,1.66-10.18.94-11.77-3.78C382,30,397.55,27,402.43,28.1Z"/><path class="cls-7" d="M436.59,33.51c5,11.15.76,24.36-7.69,32.91,13.68-.08,21.11,20,13.55,31.57-5.07,7.78-14.75,12.61-24,11-6.81-1.2-16.58-3.75-20.67-10-13.33,15.84-35.82,21.28-55.28,15.09,9.9,13.26,22.87,24.7,39.2,28.72A81.32,81.32,0,0,0,408.2,145c3.15-.27,6.53-.39,9.3,1.4s4.81,4.8,7.6,6.7a37,37,0,0,0,0-5,1.52,1.52,0,0,1,2.13-1.5c.8.32,1.58.66,2.35,1,0-3.8-.92-8.75,3.48-10.15,2.73-.87,5.32-.26,8.08-.64a43,43,0,0,0,11.1-2.85c14.28-6.07,24.9-19.3,30-33.78a94.56,94.56,0,0,0,4.84-25.7c.46-7.57.87-17-4-23.31-1.82-2.38-6.25-7.15-4.66-10.56a11.86,11.86,0,0,1,2.45-3.52c-2.44-1.22-4.74-2.93-3.48-5.84,1.53-3.52,4.87-5.13,8.36-6.28-10.81-4.78-21.45-9.78-32.12-14.9C442.49,4.77,429.88.68,417.51,4.23a41.58,41.58,0,0,0-10.59,4.63C419.57,12,431.29,21.7,436.59,33.51Z"/><path class="cls-12" d="M365,21.36a15,15,0,0,0,7.15,1.73c1-.47,2.56-1.35,2.32-2.6a3.93,3.93,0,0,0-1.88-2.17,8.19,8.19,0,0,0-7.91-.72c-.59.3-2.37,1.1-1.89,2A4.93,4.93,0,0,0,365,21.36Z"/><path class="cls-11" d="M356.56,321.76c-1.16.85-3.08.27-4.73-.43.27,2.28.61,5-1.55,6s-4.38.64-6.53-.06c-1.55,4.87-2.68,7.51-8.24,6.31-2.47,6.31-3,14.19,1.56,19.52a22.4,22.4,0,0,1,.19-4.28c.53-4.16.51-8.87,3.64-12,1.35-1.36,3.65.57,2.29,1.95-2.49,2.52-2.42,6.35-2.85,9.67-.35,2.75-.74,5.66.88,8a8.85,8.85,0,0,0,3.67,1.07c-1.17-2.45-1.1-5.65-.91-8.23.28-3.81,1.54-7.35,2.78-10.93.63-1.83,3.34-.54,2.72,1.27a40.61,40.61,0,0,0-2.36,8.31c-.25,2.14-.81,7.11.79,8.92a7.19,7.19,0,0,0,2.5-2.3c2.8-4,2.29-8.17,3.5-12.62,1.45-5.38,6.27-8.07,8.22-13.14,2-5.32,1.21-10.25-3.38-13.34C358.24,317.67,358.57,320.28,356.56,321.76Z"/><path class="cls-11" d="M335.71,224.45c10.39-2.45,19-12.4,22.9-21.81a82.66,82.66,0,0,0,6.47-32.37c-6.18,3.38-12.29,6.86-18.39,10.39C344.06,195.49,336.95,209.36,335.71,224.45Z"/><path class="cls-7" d="M508.72,211.07c-12-8-28.94-10.3-42.53-5-10.26,4-16.4,12.34-20.76,22.12-3.43,7.7-5.93,16.36-11.16,23.11-5.07,6.54-12,9.38-20.14,9.22-.78,1.24-1.59,2.44-2.46,3.59-4.18,5.51-9.84,10.24-16.83,11.5l-.12,0c7.46,5.32,18.79,4.13,27.12,1.9,10.28-2.75,20.22-7.23,25.09-17.24,5.31-10.91,7.46-24.42,16.28-33.31,3-3,6.76-6,11.18-6.45,5.1-.51,8.74,1.69,13.28,3.65,6.39,2.77,13.31,4.38,20.06,1.75,3.16-1.23,9.09-3.72,7-8.26A16.39,16.39,0,0,0,508.72,211.07Z"/><path class="cls-7" d="M403.42,268.41c11-8.82,16.66-25.56,17.54-39.3.91-14.22-2.92-28.41-5.09-42.37-2-12.93-4-25.88-5.37-38.9-3.65,0-7.38.61-11,.47a80.88,80.88,0,0,1-27.64-5.61,62.07,62.07,0,0,1-12.15-6.83c-8.6,2.92-16.35,10.08-23.58,15.29-9,6.46-17.17,13.89-26.21,20.22C296.83,180.47,285,190.6,273,200.9a1.53,1.53,0,0,1,1.3,1.68c-.17,1.67-1.2,3.89,1.68,2.86a6.83,6.83,0,0,1,1.56-.51c.61-.07,1.55-.3,2.07.25,1.3,1.38,2,3.52.07,4.26a3.5,3.5,0,0,1,4.49,1.27c1.74,2.62,2.23,3.53,5.34,2.55a19.62,19.62,0,0,1,3.39-.79,1.54,1.54,0,0,1,.5,0c8.52-9.94,21.79-15.56,32.26-23,17.18-9.93,34.16-20.16,51.89-29.1,1.73-.87,2.73,2,1,2.82q-6.43,3.24-12.73,6.69c.22,12.58-2.45,26.2-8.48,37.26-4.33,7.94-12.55,16-21.71,18.11,0,.06,0,.11,0,.17a1.2,1.2,0,0,1-1.17,1.21l-.17,0c-12.52,1.45-23.87,8.62-31.94,18.13-6.78,8-13.52,19.16-12.66,30.12,1,12.25,9.17,22.87,17.44,31.38,8.65,8.91,18.31,16.72,28.19,24.22,1.72.52,4,1.32,4.69-.91.5-1.61.92-3.24,1.43-4.84a1.51,1.51,0,0,1,2-.73c1.94.74,5.92,2,5.47-1.67a20.55,20.55,0,0,1-.17-3.61c.05-1,1.3-1.43,2.11-1.11,2.49,1,4.27,2,4.76-1.28a16.22,16.22,0,0,1,.56-2.79c-6.22-6.12-14.47-12.9-15.94-21.9-1.37-8.41,2.61-18.47,10.55-22.34,8.33-4.06,18.26-2.29,26.64.73C386.35,273.27,395.42,274.81,403.42,268.41Z"/><path class="cls-11" d="M283,215.52c-1-1.06-1-3.76-2.93-3a2.18,2.18,0,0,1-2.33-.59c-1.12-1.27-.78-2.18-.14-3.64-.21.48-3.6.48-4.23.41-2.76-.32-2.27-4.26-2.05-6.25a1.21,1.21,0,0,1-.42.22,1.14,1.14,0,0,1-1,.09c-6.56.1-13.81.31-19.82,3.12a11,11,0,0,0-6.29,6.65c2.26-2.33,4.75-4.42,7.9-5.35,3.9-1.15,8.06-2.23,12.16-1.92,1.93.15,1.41,3.1-.5,3a27.56,27.56,0,0,0-11.35,2c-3.49,1.37-6,4.24-8.44,7a12.07,12.07,0,0,0,1,3.1c4.55-7.7,15.67-9.56,23.86-9,1.93.13,1.41,3.08-.5,3-7.49-.49-18.06,1.23-21.47,9a17.05,17.05,0,0,0,3.5,3.16l.81.53c4.19-6.51,12.72-12.45,20.58-9.64,1.82.65.54,3.37-1.27,2.72-6.23-2.23-13.33,3.24-16.68,8.35a8.1,8.1,0,0,0,4.27.79c2.46-.33,4-1.82,5.88-3.19,2.5-1.8,5.47-3.13,8.65-2.75,3.69.44,7.3,2.56,11.1,1.72,4.6-1,6.86-4.91,8.18-9.06C288.5,216.64,285.49,218.12,283,215.52Z"/><path class="cls-8" d="M509.52,208c-17.89-11.92-46.24-10.67-59.95,6.91-11.16,14.31-12,41.34-33.67,42.57A72.88,72.88,0,0,0,424.1,226c.45-13.21-3.22-26.53-5.24-39.5-2-12.77-4-25.56-5.32-38.42h0c4.92.7,7.53,6.79,12,8.75a1.53,1.53,0,0,0,2.11-1.11,16.25,16.25,0,0,0,.54-5.4c.71.32,1.4.66,2.1,1a1.51,1.51,0,0,0,2.11-1.11,19.86,19.86,0,0,0,.13-5.4c-.46-5.78,5.48-4.76,8.9-4.95,5.61-.3,11.71-2.52,16.56-5.25,10.72-6,18.47-15.49,24-26.31,6.06-11.77,7.87-25.43,8.21-38.51.15-5.81-.35-12.1-2.82-17.43-1-2.2-2.87-4.1-4.23-6.1-.91-1.34-2.58-3.2-1.73-5,.39-.83,1.73-2.77,2.9-2.5,1.71.38,2.35-2.09.88-2.84-2.64-1.35-7.16-3.11-2.65-6.22,2.26-1.56,5.37-2.18,8-3a1.51,1.51,0,0,0,.12-2.77c-12.08-5.26-24-10.7-35.79-16.53C445,2.52,434.6-.72,423.48.14a40.71,40.71,0,0,0-20.84,8.11,1.36,1.36,0,0,0-.49.35q-1.38,1-2.7,2.19c-4.14,3.61-7.74,7.72-12.17,11-4,2.93-7.34,3.14-11.44,2.17,1.8-1.89,2.38-4.4,0-6.83a11.32,11.32,0,0,0-11.7-2.6c-3.33,1.34-5.74,4.36-3.4,7.29C348.81,23.84,340,35,334.19,45.73a1.38,1.38,0,0,0-.53,1c-1,2-1.95,3.9-2.76,5.76a57.93,57.93,0,0,0-4.54,16.56,1.46,1.46,0,0,0-.33,1c0,.49.06,1,.1,1.47a63.83,63.83,0,0,0,7.53,34.37,88.6,88.6,0,0,0,23.18,27.84c-7.83,3.2-14.95,9.52-21.59,14.35-4.34,3.15-8.83,6.06-13,9.49-4.67,3.87-9.11,7.85-14.09,11.33-13.63,9.49-25.87,20.1-38.48,30.85-8.56.13-18.67.57-25.53,6.27a10.73,10.73,0,0,0-3.94,10.46,1.34,1.34,0,0,0,.31,1.43,19.06,19.06,0,0,0,2.84,5.9,1.67,1.67,0,0,0,.58.78,22.69,22.69,0,0,0,3,3.25c3.27,2.86,7.65,4.69,12,4.1,2-.26,3.68-1.59,5.19-2.75,4.07-3.11,7.47-3.47,12.3-1.94,9.38,3,15.59-3.09,18.12-11.57,8.26-10.49,22.05-16.15,32.72-23.77,5.31-3.07,10.61-6.17,15.91-9.26-2.93,13.85-9.31,27-10.5,41.17-22.71,3.32-45,25.4-46.09,48.75-.57,11.95,7,22.9,14.43,31.52,9.23,10.73,20.45,19.68,31.68,28.22-3.14,7.89-3.23,16.63,2.62,23.36a14.59,14.59,0,0,0,4,3.24,1.5,1.5,0,0,0,.39.22c4.85,2.46,10.58,1.58,13.82-4,3.51-6.07,1.82-13.34,6.87-18.63a20.92,20.92,0,0,0,4.94-8.08c2.3-6.88-.28-13.06-6.56-16.42-7.51-7.55-17.65-15.49-15.57-27.38,2.29-13.11,14.59-16,25.88-13.82,7.45,1.45,13.92,5,21.32,5.14,12.16,12.74,37.55,5.08,50-3.3,9.13-6.16,12.11-17.87,15.82-27.6,4.42-11.57,13.08-26.63,27.44-19.4,9.87,5,19.7,6.31,29.71.93C523,221.45,515.58,212.06,509.52,208ZM364.68,17.6a8.19,8.19,0,0,1,7.91.72,3.93,3.93,0,0,1,1.88,2.17c.25,1.26-1.35,2.13-2.32,2.6A15,15,0,0,1,365,21.36a4.93,4.93,0,0,1-2.22-1.73C362.31,18.69,364.09,17.89,364.68,17.6ZM329.14,71.35a54.82,54.82,0,0,1,2.67-13c.65-1.92,1.43-4,2.34-6.05.67,4.87,2,9.56,5.16,13.55,4.09,5.25,9.74,6,15.86,6.48,7,.52,1.37,6.33-1.34,8.13a23.59,23.59,0,0,1-10.62,4C334.78,85.18,330,78.85,329.14,71.35Zm11.36,40a62.41,62.41,0,0,1-11.36-30.67A15.42,15.42,0,0,0,338.37,87c6.91,1.83,15.36-1.7,20.34-6.47,1.82-1.74,4.11-4.65,3.1-7.43-1.15-3.12-4.2-3.59-7.2-3.81-5.56-.41-10-1.46-13.6-6.14-3.45-4.43-4-10.66-4.34-16.08,6-11.3,15.45-22.38,27.79-22.6a17.57,17.57,0,0,0,7.61,1.58,1.12,1.12,0,0,0,.46,0c7.75,2.32,12.47,1.47,19-3.84,4.16-3.37,7.66-7.49,11.81-10.88l.24-.18c11.84,2,22,10,28.36,20,3.9,6.1,5.26,12.73,2.74,19.62-2.4,6.58-6.27,12.94-12,17a1.4,1.4,0,0,0-.45,1.87,1.41,1.41,0,0,0,1.89.75c7.81-3.09,13.66.89,16.62,8.25,2.87,7.14,1.92,15.07-3.18,20.84s-13.37,7.59-20.74,6.08c-5.65-1.15-14-3.66-17-9.06-.95-1.69-3.4,0-2.47,1.71l0,0c-13.34,16-36.12,21.37-55.6,14.73C341.31,112.46,340.89,111.9,340.5,111.34Zm2,2.69c19.47,6.19,42,.75,55.28-15.09,4.09,6.26,13.86,8.82,20.67,10,9.3,1.63,19-3.2,24-11,7.55-11.59.13-31.65-13.55-31.57,8.45-8.55,12.7-21.76,7.69-32.91-5.3-11.81-17-21.48-29.67-24.64a41.58,41.58,0,0,1,10.59-4.63c12.37-3.55,25,.55,36.13,5.89,10.67,5.12,21.31,10.12,32.12,14.9-3.49,1.15-6.84,2.75-8.36,6.28-1.26,2.91,1,4.62,3.48,5.84a11.86,11.86,0,0,0-2.45,3.52c-1.59,3.41,2.84,8.18,4.66,10.56,4.84,6.35,4.43,15.73,4,23.31a94.56,94.56,0,0,1-4.84,25.7c-5.07,14.48-15.68,27.71-30,33.78a43,43,0,0,1-11.1,2.85c-2.77.38-5.36-.23-8.08.64-4.41,1.4-3.49,6.35-3.48,10.15-.77-.35-1.55-.69-2.35-1a1.52,1.52,0,0,0-2.13,1.5,37,37,0,0,1,0,5c-2.79-1.9-4.7-4.83-7.6-6.7s-6.15-1.67-9.3-1.4a81.32,81.32,0,0,1-26.54-2.27C365.32,138.73,352.35,127.29,342.45,114ZM283.31,224.89c-3.8.84-7.41-1.28-11.1-1.72-3.18-.37-6.15,1-8.65,2.75-1.91,1.37-3.42,2.86-5.88,3.19a8.1,8.1,0,0,1-4.27-.79c3.35-5.11,10.45-10.58,16.68-8.35,1.81.65,3.09-2.07,1.27-2.72-7.86-2.81-16.39,3.13-20.58,9.64l-.81-.53a17.05,17.05,0,0,1-3.5-3.16c3.41-7.75,14-9.46,21.47-9,1.91.12,2.43-2.83.5-3-8.2-.53-19.31,1.32-23.86,9a12.07,12.07,0,0,1-1-3.1c2.47-2.73,5-5.6,8.44-7a27.56,27.56,0,0,1,11.35-2c1.91.15,2.43-2.81.5-3-4.1-.31-8.25.77-12.16,1.92-3.15.93-5.64,3-7.9,5.35a11,11,0,0,1,6.29-6.65c6-2.81,13.26-3,19.82-3.12a1.14,1.14,0,0,0,1-.09,1.21,1.21,0,0,0,.42-.22c-.22,2-.71,5.93,2.05,6.25.63.07,4,.07,4.23-.41-.63,1.47-1,2.37.14,3.64a2.18,2.18,0,0,0,2.33.59c1.94-.75,1.9,2,2.93,3,2.52,2.6,5.54,1.11,8.52.3C290.17,220,287.91,223.87,283.31,224.89Zm63.4-44.22c6.09-3.53,12.21-7,18.39-10.39a82.66,82.66,0,0,1-6.47,32.37c-3.89,9.41-12.52,19.36-22.9,21.81C336.95,209.36,344.06,195.49,346.71,180.66Zm12,134.76c4.59,3.09,5.42,8,3.38,13.34-1.95,5.07-6.77,7.76-8.22,13.14-1.2,4.45-.69,8.61-3.5,12.62a7.19,7.19,0,0,1-2.5,2.3c-1.6-1.81-1-6.79-.79-8.92a40.61,40.61,0,0,1,2.36-8.31c.63-1.81-2.09-3.1-2.72-1.27-1.24,3.59-2.5,7.12-2.78,10.93-.19,2.59-.25,5.78.91,8.23a8.85,8.85,0,0,1-3.67-1.07c-1.62-2.34-1.23-5.26-.88-8,.42-3.32.36-7.15,2.85-9.67,1.36-1.38-.93-3.31-2.29-1.95-3.13,3.16-3.11,7.87-3.64,12a22.4,22.4,0,0,0-.19,4.28c-4.6-5.33-4-13.22-1.56-19.52,5.57,1.2,6.69-1.44,8.24-6.31,2.16.71,4.39,1.09,6.53.06s1.82-3.74,1.55-6c1.65.69,3.57,1.28,4.73.43C358.57,320.28,358.24,317.67,358.74,315.42ZM377.42,270c-8.38-3-18.31-4.79-26.64-.73-7.94,3.87-11.92,13.92-10.55,22.34,1.47,9,9.72,15.78,15.94,21.9a16.22,16.22,0,0,0-.56,2.79c-.49,3.29-2.27,2.27-4.76,1.28-.81-.32-2.06.08-2.11,1.11a20.55,20.55,0,0,0,.17,3.61c.45,3.69-3.52,2.41-5.47,1.67a1.51,1.51,0,0,0-2,.73c-.51,1.61-.92,3.24-1.43,4.84-.7,2.23-3,1.43-4.69.91-9.87-7.5-19.54-15.31-28.19-24.22-8.27-8.52-16.48-19.13-17.44-31.38-.86-11,5.88-22.12,12.66-30.12,8.07-9.51,19.43-16.69,31.94-18.13l.17,0a1.2,1.2,0,0,0,1.17-1.21c0-.06,0-.11,0-.17,9.16-2.1,17.37-10.17,21.71-18.11,6-11.05,8.7-24.68,8.48-37.26q6.31-3.44,12.73-6.69c1.71-.86.7-3.69-1-2.82-17.73,8.94-34.72,19.17-51.89,29.1-10.48,7.48-23.74,13.1-32.26,23a1.54,1.54,0,0,0-.5,0,19.62,19.62,0,0,0-3.39.79c-3.11,1-3.6.07-5.34-2.55a3.5,3.5,0,0,0-4.49-1.27c2-.74,1.23-2.88-.07-4.26-.51-.55-1.45-.31-2.07-.25a6.83,6.83,0,0,0-1.56.51c-2.89,1-1.86-1.19-1.68-2.86a1.53,1.53,0,0,0-1.3-1.68c12.06-10.3,23.86-20.43,36.93-29.53,9-6.33,17.24-13.76,26.21-20.22,7.23-5.2,15-12.37,23.58-15.29a62.07,62.07,0,0,0,12.15,6.83,80.88,80.88,0,0,0,27.64,5.61c3.64.14,7.37-.49,11-.47,1.33,13,3.36,26,5.37,38.9,2.16,14,6,28.15,5.09,42.37-.88,13.74-6.52,30.48-17.54,39.3C395.42,274.81,386.35,273.27,377.42,270Zm130.3-44.11c-6.75,2.63-13.67,1-20.06-1.75-4.53-2-8.17-4.16-13.28-3.65C470,221,466.2,224,463.2,227c-8.82,8.89-11,22.39-16.28,33.31-4.87,10-14.81,14.48-25.09,17.24-8.32,2.23-19.66,3.42-27.12-1.9l.13,0c7-1.26,12.65-6,16.83-11.5.87-1.15,1.69-2.35,2.46-3.59,8.16.16,15.06-2.68,20.14-9.22,5.23-6.75,7.73-15.41,11.16-23.11,4.36-9.78,10.5-18.11,20.76-22.12,13.59-5.31,30.53-3,42.53,5a16.39,16.39,0,0,1,6,6.6C516.81,222.21,510.87,224.7,507.71,225.93Z"/><path class="cls-8" d="M411.22,94.42c1.48,1.6,4.12,3.59,6.09,1.45,1.81-2,2-5.1,2.53-7.61,1.7-8.79,16.82.16,11.39,5.73-1.36,1.39.94,3.32,2.28,1.95,5.91-6.07-2.3-13.34-8.41-14.29-2.9-.45-6.51.77-7.6,3.7a31.19,31.19,0,0,0-1.08,4.86,14.87,14.87,0,0,1-.86,3c-.58,1.37-1.86-.47-2.39-1C411.85,90.72,409.93,93,411.22,94.42Z"/><path class="cls-8" d="M403.32,28.68a1.46,1.46,0,0,0-.9-.58C397.55,27,382,30,384.55,37.6c1.59,4.71,7.88,5.44,11.77,3.78,4.51-1.93,8.12-6.94,7.35-11.94A1.51,1.51,0,0,0,403.32,28.68Zm-8,9.89a6.45,6.45,0,0,1-5,.46c-1.08-.37-3.2-1.73-3.06-3.11.22-2.2,4.68-3.42,6.32-3.94a19.28,19.28,0,0,1,7.17-1.08C400.68,34.21,398.22,37.09,395.29,38.56Z"/><path class="cls-8" d="M399.11,20.2a17.21,17.21,0,0,1,18.45,20.3,1.5,1.5,0,0,0,3,.5,20.25,20.25,0,0,0-21.68-23.79A1.5,1.5,0,0,0,399.11,20.2Z"/></g></g></svg>