<svg xmlns="http://www.w3.org/2000/svg" viewBox="0 0 764.78 688.47"><defs><style>.cls-1{fill:#efece3;}.cls-2{fill:#fbfae4;fill-rule:evenodd;}.cls-3{fill:#fefce4;}</style></defs><title>thank_you3_1</title><g id="Layer_2" data-name="Layer 2"><g id="Layer_1-2" data-name="Layer 1"><path class="cls-1" d="M234.93,136.15c-.85-1.57-1.52-3.92-2.25-5.14-23.47,16.48-21.15,110.57-21.2,176.19,19,2.77,36.6,5.54,50.54,5.91,3.81-4.59,7.32-8.71,13.51-7.63,4,.71,8.65,2.8,9.08,4.9,1.7-.4,3.41-.77,5.14-1s6,.29,5.71,2.16h0a6.75,6.75,0,0,1-.27,2c-1.73,3.59-10.08,4.61-13.31,5.28q-2,.25-4.08.44c-19.74,27-35.13,69.32-37.34,103.94-.74,17.06,3.06,42.54,17,52.72,24.12,17.59,49.89-16,59.8-36.54.25-25.29-4.21-142.65,28.78-146,5.33-.55,9.83,2.32,9.63,8.75-31.87,11.77-9.81,192.89-28.1,255.52,11.53,3.47,23,7.33,34.25,11.72a107.34,107.34,0,0,1,25.38-31,91.24,91.24,0,0,1-9.69-10.72c-19.19-25-21.41-61.32,5.29-81.81,18.47-14.18,49-18.33,66.67-1.53,12.16,11.56,11.31,32.2-1,43.12-.58.51-.57.78-1.45.44s-.4-.55.08-1c11.75-11.28,7.62-34.69-7.06-43.63-19.22-11.72-45.6-2.71-59.13,14.33-19,24-9.25,56.28,12,76.41,21.42-15.64,48-23,74.71-21.92,24.57,1,43.54,10.89,56.38,24.49A123,123,0,0,0,550.48,505c-80.73-17.24-80.57-148.48-7-208.52-6.21-12.64-14-26.13-19.42-38.74-1-2.29-1-3.56,1.17-5.06,3-2.07,9-2.89,11.8-1.41,12.41-6.85,25.43-24.23,20-39.84-2.43-7-6.77-6.84-11.5-3.89-19.33,12.09-31.66,43.91-34.06,67.18.57,2.35,2,4.57,2.77,6.92,1.32,4.08-.58,7.06-4.56,7.82-6.15,1.17-12.15-3.41-14.48-9.41-14.23-36.67-7.69-110.71,3.29-150.31a187.28,187.28,0,0,0-29.75,1.33c-1.24,22.37-21.29,46.44-42.76,45.64-15.25-.57-22.64-12.56-11.83-26.23,10.48-13.27,31.37-20.36,47.17-23-.06-29.78-22.27-46.68-46.14-54.23A45.84,45.84,0,0,1,414,87.88c-5.86,24.15-28.77,36.64-49.83,41.44-20.15,4.59-42.7,3.54-64.45.05-3.14,17.34.85,34.58,18.23,38.76,1.69.41,2.8.36,4,1s.61,1.15-.38,1.23a18.46,18.46,0,0,1-10.22-1.9c-10.58-5.61-15.71-19.14-15.68-31.27a61.68,61.68,0,0,1,.59-8.38c-10.15-1.75-20.09-4-29.48-6.44-9.55,40-9.77,81.74-10.81,123,1.74-6.09,3.74-12.08,5.91-18,4.54-12.33,12.85-28.6,24.38-31.46,8.64-2.15,15.57,1,18.87,10.59,6.31,18.26-3.93,56.06,2.11,64.91,5.4-2.92,14.32-12,17.36-17.44.22-.4.45-.86.68-1.35,1-17,7.1-36.42,14.52-46.12,7.24-9.47,17.38-14,28.81-13.18a21.26,21.26,0,0,1,16.13,8.88,12.25,12.25,0,0,1,2.56,7.31c-.12,2.8-2.24,3.59-4.56,3.77-7.08.55-2.57-12.68-14.59-11.18-20.1,2.5-30.9,59.67-20.87,70.67,11.1.3,21.09-23.79,25-43.74,2.67-5.2,17.62-2.44,18.33,1.17-.79,6.93-5.78,26.51,0,42.22,9.94-10.64,12.25-26.77,14.86-39.79.15-.77.3-1.54.46-2.31l0-.16a205.1,205.1,0,0,1,2.57-24.57c.73-4.06,2.78-7.1,7-6.79,1.82.13,10.3,2.75,10.87,4.44-1.3,14.8-3.3,28.87-2.51,43.82,5.4-15.33,12.11-29.17,21.64-42,3.17-4.26,6.56-5.73,11-5.41,7.92.56,12.79-.08,16.56,9,7.39,17.79-1.66,58.84,4.72,72.14-1,4.18-6.92,6.46-9.76,6.62-8.9.5-11.7-10.76-12.48-18.52-1.71-17.08,2.59-50.32-2.15-57.64-19.43,12.5-25.86,50.11-27.41,55,.33,1.42,3.8,11.6,4.19,12-.6,1.28-8.56,6-9.78,6.44-6.62,2.44-10.16-3.61-11.78-9.45a85.63,85.63,0,0,1-2.42-15,97.05,97.05,0,0,1-6.49,16.47c-3.86,7.08-9.59,8.78-15.11,7.94-11.26-1.73-13.92-11.5-14.23-28-6,12.44-10.72,29.73-26.76,28-8.12-.88-13.16-2.25-16.33-11.42a37.28,37.28,0,0,1-1.57-6.6c-3.19,5.85-6.91,11-10.75,13.59-10.46,6.91-24.75,3.43-27.41-11-2.22-12,2-30.79,2.17-43.85.12-4.7.17-14.12-1.23-18.54-2.46-7.8-8.06-.82-10.5,2.39-8.56,11.23-21,44.69-22.87,67.07-.29,3.52-1.45,5-4.53,6-4.28,1.38-10.51,1.81-14.09-2.25,1.93-11.75,2.55-117,15.5-161.25-51.19-16.36-122-35.31-173.72-17.89-41.89,14.1-68.35,57.23-34.95,97.1,24,28.69,66.2,32,98,21S187.38,191,201.66,161a130.22,130.22,0,0,1,9.47-22.82,34.25,34.25,0,0,1,13.27-13c7.06-3.64,15.61-3.36,16.85,6.93.67,5.53-4.14,8-6.32,4ZM528.57,541.88c27.49,35.25,18.23,88.51-35.16,84.26C489.9,671,458.3,689,424.61,688.46c-53.32-.91-90.09-57.48-66.7-111.18-10.66-4.25-21.31-8-32.21-11.37-18.07,72.95-73.79,120.58-149,109.14-35.54-5.41-65.13-38.22-46.62-78.39a72.85,72.85,0,0,1,8.08-13.51c-12.25-14.52-16.83-35.21-8.83-56-34.66.27-72.92-22.09-67.4-65.49.17-1.3.38-2.58.63-3.85q-2.35-1.33-4.64-2.83c-29.26-19.18-45.79-56.62-46.56-92.74-.67-31.19,7.83-64,28.61-86.12a89.22,89.22,0,0,1,62.12-28.66c19.21-.91,40,3.59,54.62,18.43,9.72,9.88,14.53,23,15.06,36.43,6.91.57,13.81,1.34,20.61,2.2-.52-39.94-2.9-83,3.74-120.53a94.15,94.15,0,0,1-46.6,37.86c-32.13,12-73.66,11.84-102.45-10.19C21.18,191.88,7.75,157,25.76,126.22c14.53-24.82,42.57-36.09,68.38-40.31,53.66-8.77,109.41,4.41,161.57,19.13,9.94-30.76,26.33-58.74,53.76-74,21.55-12,52.76-13,74.75-1.43,14.54,7.66,26.68,21.49,30.13,37.91q2.95.69,5.75,1.53C445,76.52,468,96.43,468.81,126.47a247.69,247.69,0,0,1,31-1.28c13.55-44.87,40.29-98.08,86-109C686.5-8,694.91,148.12,516.64,130.4c-10.07,36.58-13.92,88.43-8.57,127,5.23-21.23,20.74-57.52,43.31-58.64,8.72-.43,15.52.15,20,10.29,8.81,19.84-10,49.15-26.84,52.37L558,286c49.21-32.12,134.2-35.86,181.08,5.65C795.89,342,750.55,417.75,681,417c-61.65-.65-104.79-55.41-132.14-109.74-46.56,42.29-72.4,136.62-13.08,179.27a64.17,64.17,0,0,0,19.39,9.56,71.07,71.07,0,0,0,6.32-21.61c3.14-28.58-6.71-50.81-35.45-51.52-2.32-.06-2.06.11-.6-1.45s1-1.59,2.94-1.81c23.88-2.82,38.56,11.83,41.69,36.92,1.69,13.56-1.44,27.87-7.34,41.17,38.22,6.08,74.68-25.95,60.19-63.58-.83-2.16-1.13-3.37,1.43-4.33,3.89-1.46,5-.14,7.19,2.53,8.57,10.24,4.39,30.33-1,40.8-13.67,26.59-40.72,35.22-67.64,33.49q-2.23-.14-4.39-.39c-8,14.52-18.93,27.24-29.89,35.56Zm-121.22,3.25c33.46,21.18,75.41,18.86,108.51-2.66-15.08-14.5-39.27-23.14-71.78-15.72a103.67,103.67,0,0,0-36.72,18.38Zm113.13,2.28c-34.76,21.51-83.16,24.16-118.58,2.2a100.52,100.52,0,0,0-22,27.12c31.67,13.51,68.64,33.18,101.8,40,.26-6.84-6-13.51-8.5-20.11-.45-1.18,2.73-1.93,3.69-1.17,3.76,3,10.72,6.9,15.47,23.1,44.85,3.49,52.45-42.06,28.14-71.17Zm-378,30.52c22.08-24.22,59.13-32.72,95.54-33.31-1.54-8.42-5.82-16.25-12.53-21.4-.24-.18-.84-.45-.47-.62s.75.14,1.1.27c11,4,17.27,12.13,19.32,21.74a292.4,292.4,0,0,1,63.44,7.91c6.46-31,7.67-64.59,8.19-96.4-7.33,11.42-11.92,18.05-22.77,25.61-25.08,17.45-58.18,8.75-68.4-24.17C213,415.87,233.84,354,256.9,320c-14.69-.27-30-2.18-45.44-4.26-.08,15.54-.37,29.07-1.32,39-3.53,37-17.45,70.77-45.1,93.13-27,21.81-64.92,27.83-96.44,13.17-.18,1.17-.32,2.35-.42,3.53-3.29,39.18,31.93,58.31,63.09,58.35,7.3-14.55,21.74-26.57,37.37-27.51,4.95-.3,11.15,1,10.45,8-1.58,15.69-29.1,22.37-41.9,23.48-8.27,18.44-5.12,37.31,5.34,51.1Zm-1.18-159.19c1.14-8.7-7.38-10.36-13.51-10.8-24.49-1.74-50.56,20.42-57.83,46.58a82.15,82.15,0,0,0,18.89,5.91c41,7.62,76.9-23.75,92.92-62.92,9.24-22.58,10.84-52.24,10.68-84.37-7-.9-14-1.71-20.92-2.31a65.62,65.62,0,0,1-6.14,22.29c-8.07,16.81-16.85,27.64-30.92,37.8-15.87,11.45-32.23,10.46-32.08,10.43,17-3.93,41.62-29.67,48.2-46.62a75.36,75.36,0,0,0,5.18-24.82,150.38,150.38,0,0,0-34.71,2.64c-13.53,2.81-31.35,9-40.36,20.45-6.66,8.45-5.39,16.76,4,22.44,9.88,6,24.87,2.79,34.25-2.41,1-.54,1.58-1,2.71-.83a4.38,4.38,0,0,1,1.07.33c1.15.54.39,1-.25,1.57-10,8.31-29,8.24-40.69,4.63-17.18-5.29-20.74-21.25-7.67-34.66s31.28-18.81,50.61-21.35a192.18,192.18,0,0,1,30.74-1.29,54.3,54.3,0,0,0-10.08-26.82C134,259,112.52,250.64,94.62,253c-27.71,3.67-49.24,18.92-63.65,44.6-15.56,27.75-18,64-9.93,95.32,6.82,26.38,22.2,47.07,43.11,58.65,9.28-30,41.14-51.39,70-46.92,7.09,1.1,17.85,7.74,9.27,15-.78.66-1.09.95-2.18.49-.83-.35-.06-.48.06-1.43Zm8.43,166.92A53.27,53.27,0,0,0,170,596.55c25.21,7.25,57-5.1,66.64-32.36a37.48,37.48,0,0,0,2.1-12.45c-34.63.2-69.22,8.61-88.94,33.91Zm96.45-33.83a42.9,42.9,0,0,1-3.35,16.26c-11.95,29.06-45.83,39.37-73.06,33.77a56.36,56.36,0,0,1-23.7-11,71.94,71.94,0,0,0-4,7.13c-18.49,37.54,12.65,65,45,70,58.47,9.12,107.38-51.14,120.11-107.4a279.26,279.26,0,0,0-60.93-8.77ZM139.73,522c8.67-1.56,31-8.44,31.86-19.43.27-3.41-5-2.25-6.46-1.77-9.62,3.15-19.86,12.13-25.4,21.2ZM451.47,384.83c-3.39,12.86-10.79,25.72-19.28,26.47-11.12,1-15.76-2.29-17.65-15-2.29-15.37.28-42.79,2.21-59.42.4-3.43,0-3.82,3.31-5.45a13.5,13.5,0,0,1,10.6,0c3,1.49,3,2.28,2.76,5.5-.79,12.3-8.88,58.67-1.64,67,15.79-10.09,18.93-47.31,24.08-69.57.93-4,2.33-6.14,6.47-4.7,2.13.75,8.42,4.59,11.41,4.21.36.15-12.79,44-.27,66.51,2.28,4.11.84,5.92-5,7.19-11.48,2.49-16-13-17-22.79ZM379.17,328c-3.31.3-6.64.46-9.94.83a8.31,8.31,0,0,0-5.67,3.45c-16.24,21.27-19.94,52.54-1.39,73.75,4.52,5.17,10.37,6.1,16.52,5.66,4.39-.32,7.27-.21,11.07-3,16.44-12,22.74-54.21,11.09-73.8-2.67-4.48-4.08-5.91-9.17-5.9a10.15,10.15,0,0,0-6.69,2c-2.19,1.86-2.58,3.44-.26,5.55,13.12,12,8.43,56.19-6.76,64.89-16.41-9.63-8.86-47-2.29-59.3,3-1.91,7.18-9.82,3.48-14.17Zm-3.23,256.8c-18.74,42.68,7.5,88.56,46.92,94.59,27.12,4.75,62.13-20.15,60.18-54C448.19,620,408.72,599,375.93,584.8Zm25.31-514.9c-2.17-.37-4.31-.67-6.43-.9-28.09-3-60.89,6.44-80.45,28.58a63,63,0,0,0-11.1,19.16c16.89,3.25,34.38,5.22,49.5,3.42,17-2,34.89-9.27,44.18-25.65a36.59,36.59,0,0,0,4.31-24.61ZM299.47,116c4.87-13.39,14-24.79,25-33.24,20-15.32,49.79-20.31,75.62-17.58a45.35,45.35,0,0,0-13.9-21c-17-14.63-37.61-17.83-56.73-11.13-31.34,11-49.9,43.42-59.16,76,8.95,2.36,18.89,4.87,29.14,7ZM563,295.93c28.2,56.26,63.45,102.53,124.71,111.34,47.72,6.86,97.65-59.9,46.52-108-45.92-44.14-122.81-37.52-171.23-3.38ZM461.1,132.46c-14.05,3.14-36.56,10.67-43.29,25.62-4.49,10,5.18,14.89,13.49,12.55,16-4.49,28.12-20.46,29.8-38.17ZM518,125.78c35.22,1.55,69,3,100.17-17.54,17.44-11.47,36.62-33.71,30.12-58-6.94-25.91-38.57-31.58-57.85-24.16C552.31,40.76,529.87,86,518,125.78Z"/><path class="cls-2" d="M487,620.52c-1.95,17.15-8.3,32.52-20,43.77C452.72,678,433.48,683,415.34,682.68a76,76,0,0,1-45.88-16.29,79.32,79.32,0,0,1-11-10.55,79.18,79.18,0,0,0,9.5,8.82,76,76,0,0,0,45.89,16.29c18.14.31,37.38-4.67,51.63-18.38,11.69-11.25,18-26.62,20-43.77,18.7.74,38.62-5.65,47.05-27,8-20.28,1.54-43.71-10-60.3A120,120,0,0,0,549.29,499q1.32.12,2.63.21c26.91,1.73,55.77-6.64,70.49-35.25,6.31-12.26,10.08-33.67.62-45.1.47.48,1,1,1.47,1.65,9.55,11.41,5.77,32.89-.55,45.18-14.71,28.61-43.58,37-70.49,35.25q-1.32-.08-2.63-.21A120,120,0,0,1,524,533.19c11.58,16.58,18,40,10,60.3-8.44,21.39-28.35,27.78-47.05,27ZM342.45,569.27q-11.84-4.53-23.86-8.33c-7.13,26.74-19.67,51.22-37.46,70.27-31.28,33.5-72.54,44.36-114,38-14.87-2.26-31-9.8-41.9-22.6,10.89,11.76,26.18,18.71,40.36,20.87,41.5,6.32,82.77-4.54,114-38,17.79-19.05,30.33-43.53,37.46-70.27q13,4.14,25.77,9.07l-.37,1ZM113.58,521.21q-4-.28-7.94-.94c-15.41-2.56-32-9.79-43.31-23,11.22,12.09,27,18.79,41.77,21.24A84.86,84.86,0,0,0,114,519.6q-.24.81-.45,1.61Zm-65.4-71.78-1-.65a92.26,92.26,0,0,1-19-16.68,91.52,91.52,0,0,0,17.41,15q1.31.86,2.64,1.66l-.1.71ZM150.59,254.91A57.62,57.62,0,0,1,165.31,288l-1.38-.13a58.31,58.31,0,0,0-13.34-33Zm29.29-65.48A96.89,96.89,0,0,1,141.26,216a129.73,129.73,0,0,1-45.53,8.13c-20.65-.09-42.14-5.41-59.58-18.75a84.6,84.6,0,0,1-12.52-11.8,84.67,84.67,0,0,0,11,10.07C52,216.95,73.54,222.27,94.19,222.35a129.74,129.74,0,0,0,45.53-8.13,97,97,0,0,0,40.63-28.85q-.25,2-.47,4.06ZM394,30.6a57.67,57.67,0,0,1,13.23,23l-1.15-.3A56.76,56.76,0,0,0,394,30.6ZM446.6,77.48a59.4,59.4,0,0,1,15.7,33.8l-1.35.12A59.16,59.16,0,0,0,446.6,77.48Zm191.51-60.6a47.27,47.27,0,0,1,11.31,20.8,54.46,54.46,0,0,1-2.34,33c-4.92,12.73-13.74,23-23.64,30.59-31.36,24.18-77.16,26.88-113.8,23.55-7.86,30-11.52,69-9.63,102.53q-.63,1.62-1.22,3.22c-2.57-34.55,1.05-75.94,9.3-107.48,36.64,3.33,82.43.64,113.8-23.55,9.9-7.64,18.72-17.85,23.64-30.59a54.46,54.46,0,0,0,2.34-33,47.33,47.33,0,0,0-9.77-19.07Zm-78,173.69a23.65,23.65,0,0,1,4.85,7.37,29.75,29.75,0,0,1,2.06,6.72c3.47,19-10.81,43.08-26.76,49.56l8.46,15.57-.45.27-9.55-17.57c15.95-6.48,30.23-30.54,26.76-49.56a29.67,29.67,0,0,0-2.06-6.72,26.46,26.46,0,0,0-3.31-5.64Zm178.76,95.85c13.11,14.36,21.79,33.13,19.43,55-2.19,20.4-13.54,37.72-27.64,49.39-17,14.09-38.17,20.59-58.93,20.37-37.42-.4-68.45-20.25-93.54-48.71,24.83,27.53,55.35,46.59,92,47,20.76.22,41.91-6.28,58.93-20.37,14.1-11.67,25.45-29,27.64-49.39,2.27-21.05-5.64-39.19-17.89-53.32ZM538.34,303.74c-38.31,37.65-61.79,113.5-24.09,157.59-40-44-16.1-121.74,23-159.74l1.12,2.15ZM540.2,426.2c-5.39-5.56-13.16-8.76-23.49-9-1.73,0-3.61,0-4.45-2.18a7.23,7.23,0,0,0,2.91.45c11.36.28,19.62,4.12,25,10.74Zm11.31-8.94c6.47,6.83,10.8,16.75,12.38,29.44s-.78,25.4-5.08,37q-1.07,0-2.14-.13c4.68-12.05,7.33-25.43,5.69-38.62-1.45-11.66-5.22-21-10.84-27.71ZM222,127.65c-7.41,9-10.72,28.1-12.2,38.54-1.65,11.62-2.56,23.48-3.18,35.24-.69,13.09-1,26.22-1.13,39.33-.19,17.45-.08,34.9-.08,52.35l-1.54-.23c0-18-.12-35.9.07-53.86.15-13.11.45-26.24,1.13-39.33.62-11.75,1.53-23.61,3.18-35.24,1.51-10.62,4.91-30.27,12.6-39,.22.51.45,1,.71,1.5.13.24.27.48.42.7Zm65.36,170.23a4.77,4.77,0,0,1,2,4.77,7.78,7.78,0,0,1-.63,3.26c-2.49,5.18-10.94,6.33-15.59,7.1-1,.16-2,.26-3,.35-18.7,26.16-34,66.89-35.77,100.67-.75,14,2,34,11,45.09C235.1,448.51,232,427,232.82,412.31c1.81-33.79,17.08-74.51,35.77-100.67,1-.09,2-.18,3-.35,4.65-.77,13.1-1.92,15.59-7.1a7.78,7.78,0,0,0,.63-3.26,5,5,0,0,0-.47-3Zm58.61-14.79c2.35,2.1,3.81,5.37,3.67,9.75l-.08,2.55-2.09.77C337.1,300,334,330,333.05,340.14c-1.35,14.05-1.89,28.33-2.24,42.46-.4,16.05-.51,32.12-.66,48.18-.21,22.13-.41,44.39-1.67,66.47-.55,9.59-1.31,19.23-2.55,28.73a176.14,176.14,0,0,1-3.3,18.54l-1.83-.57a171.23,171.23,0,0,0,3.59-19.7c1.24-9.51,2-19.14,2.55-28.73,1.26-22.08,1.46-44.34,1.67-66.47.15-16.06.26-32.13.66-48.18.35-14.13.9-28.41,2.24-42.46,1-10.14,4-40.17,14.37-44l2.09-.77.08-2.55a12.92,12.92,0,0,0-2.13-8Zm25.51,244q-1-1-1.89-2.11,1,1.05,1.94,2.07l-.05,0Zm71.81-94c12.66,13.19,11.47,35.81-2.13,47.82-1.5,1.32-2.45,1.72-4.33,1a4.08,4.08,0,0,1-2.33-2.12,5,5,0,0,0,.79.39c1.88.73,2.83.33,4.33-1,13-11.5,14.67-32.72,3.67-46.09Zm-9.52,7.46a22.4,22.4,0,0,0-4.37-3.51c-17.51-10.67-42.43-2.76-55.4,13.58-16.77,21.12-8.82,47.92,6.64,65.87-16.46-17.93-25.5-45.8-8.18-67.6,13-16.34,37.88-24.25,55.4-13.58a23.37,23.37,0,0,1,5.9,5.24Zm100,56.84a73.06,73.06,0,0,1-33.89-22.24,73.11,73.11,0,0,0,34.59,21.17l-.7,1.07Zm9-297.22c-1.3-.69-2.9-.06-4.94,1.21-11.59,7.25-20.72,22.4-26.38,38.34a6.29,6.29,0,0,0-1.79,5.42A112.65,112.65,0,0,0,505.41,265c.61,1.93,1.87,4,2.52,6,2.11,6.54-1.36,11.59-7,12.66s-11.16-1.62-14.88-6.34c3.64,3.62,8.53,5.53,13.34,4.61,5.61-1.07,9.08-6.12,7-12.66-.64-2-1.9-4.07-2.52-6,2.54-22.66,14.53-52.5,32.36-63.64,2.93-1.83,5-2.34,6.48.51Zm-59.6-76.23a172.07,172.07,0,0,0-20.74,1.06c-1.57,12.9-8.45,25.08-16.86,33.34-8,7.88-18.21,13-28.84,12.65-5.84-.22-12.71-2.23-16.72-7.48,4.08,4,10,5.56,15.18,5.75,10.63.4,20.81-4.76,28.84-12.65,8.41-8.26,15.29-20.44,16.86-33.34a178.37,178.37,0,0,1,22.71-1q-.21.85-.43,1.72Zm-46.71-38c-7.42-8-17.28-13.51-27.18-17.15A50.69,50.69,0,0,1,402,93.62c-10.29,17-29.43,26-46.41,29.84-20.24,4.61-42,3.62-62.51.55-1.18,9.37,0,18.07,4.73,24-6-5.93-7.56-15.45-6.26-25.76,20.49,3.07,42.27,4.06,62.51-.55,17-3.87,36.12-12.84,46.41-29.84A50.64,50.64,0,0,0,407.67,67c10.61,3.9,21.15,10,28.72,18.88ZM314.54,156.71a4.24,4.24,0,0,1-2,7.83,21.18,21.18,0,0,1-11.73-2.22,27.74,27.74,0,0,1-8.35-6.94,27,27,0,0,0,6.81,5.21A21.18,21.18,0,0,0,311,162.82a4.2,4.2,0,0,0,3.51-6.1Zm-32.61-34.59c-7.41-1.4-14.79-3.05-22.13-4.9-6.74,29.94-8.4,60.92-9.27,91.81-.61,1.42-1.17,2.82-1.7,4.19.84-32.85,2.25-65.87,9.42-97.73,7.88,2,15.8,3.75,23.77,5.2q-.06.71-.1,1.42Zm11.58,64.69a22.62,22.62,0,0,1,5.29,8.87c3.06,8.85,2.52,21.13,1.9,30.51-.48,7.21-1.27,14.49-1.5,21.71,0,1.35-.1,3.81,0,6.18-.42.35-.84.68-1.25,1a51.65,51.65,0,0,1-.33-8.9c.24-7.22,1-14.49,1.5-21.71.62-9.38,1.16-21.66-1.9-30.51a24.44,24.44,0,0,0-3.75-7.14Zm82,.74a27.76,27.76,0,0,1,2.38,2.81,16.1,16.1,0,0,1,3.32,9.86c-.21,4.93-3.7,6.91-7.46,7.2a6.41,6.41,0,0,1-5.25-1.88,9,9,0,0,1-1.06-1.29,6.44,6.44,0,0,0,4.77,1.45c3.77-.29,7.25-2.28,7.46-7.2a16.1,16.1,0,0,0-3.32-9.85q-.41-.56-.84-1.08Zm-12.17,9.18a6.34,6.34,0,0,0-4.06-.5c-9.9,1.23-16.42,19.24-18.85,28.68a91.38,91.38,0,0,0-3,22.64,38,38,0,0,0,1.25,10.05,6.39,6.39,0,0,1-.74.22c-1.7-3.12-2-8.9-2-12a91.38,91.38,0,0,1,3-22.64c2.43-9.44,8.95-27.45,18.85-28.68,3.42-.43,4.76.59,5.6,2.23Zm18.83,19.66a6,6,0,0,1,2.24,3.54l.13.63-.07.65c-.28,2.49-.78,5-1.17,7.5-.54,3.38-1,6.76-1.28,10.19a68.48,68.48,0,0,0,.13,13.7q-.49.82-1,1.61a62.86,62.86,0,0,1-.66-17c.28-3.42.74-6.81,1.28-10.19.4-2.47.89-5,1.17-7.5l.07-.65-.12-.64a5.51,5.51,0,0,0-.71-1.81Zm36-26.35a5.34,5.34,0,0,1,1.85,2.43l.28.82-.08.88c-.61,6.93-1.39,13.84-1.95,20.76q-1,2.08-2,4.19c.52-8.91,1.58-17.78,2.36-26.68l.08-.87-.28-.82a4.07,4.07,0,0,0-.31-.7Zm44,.6a19.88,19.88,0,0,1,4.44,7c4,9.75,3.55,25.2,3.18,35.87-.25,7.25-.68,14.6-.57,21.86.06,4,.3,10.62,2,14.22l.62,1.29-.33,1.42c-1.31,5.65-8,9-12.62,9.29a11.31,11.31,0,0,1-8.52-3.06,14.82,14.82,0,0,1-1.76-1.93l.22.2a11.32,11.32,0,0,0,8.52,3.06c4.64-.26,11.3-3.65,12.62-9.29l.33-1.42-.62-1.29c-1.73-3.6-2-10.18-2-14.22-.11-7.26.32-14.6.57-21.86.37-10.67.87-26.12-3.18-35.87a23.76,23.76,0,0,0-2.9-5.26Zm-20.73,17.65A48.69,48.69,0,0,0,432.78,220a111.26,111.26,0,0,0-9.21,23.17c-.89,3.08-1.69,6.19-2.44,9.32-.34,1.4-.66,2.94-1,4.37.45,1.53,1.08,3.22,1.56,4.62s1.16,3.6,1.82,5.1l1.4,1.56-1.14,2.44c-.91,1.94-4.33,4-6,5a36.85,36.85,0,0,1-5.57,3.12c-5.12,1.88-9.1,0-11.93-3.73a9.43,9.43,0,0,0,10.39,2,36.89,36.89,0,0,0,5.57-3.12c1.67-1,5.09-3.1,6-5l1.14-2.44-1.4-1.56c-.66-1.5-1.3-3.58-1.82-5.1s-1.11-3.09-1.56-4.62c.38-1.43.71-3,1-4.37.75-3.13,1.55-6.24,2.44-9.32a111.26,111.26,0,0,1,9.21-23.17,46.52,46.52,0,0,1,9.93-12.76c.14.83.25,1.78.35,2.8ZM395,265.45c-.59,1.29-1.2,2.54-1.85,3.74-4.14,7.59-10.64,10.74-18.14,9.59a16.58,16.58,0,0,1-11.14-6.27,17,17,0,0,0,9.6,4.54c7.5,1.15,14-2,18.14-9.59.91-1.68,1.76-3.48,2.55-5.34.23,1,.48,2.06.76,3.06l.08.28Zm-36.82-3.91c-4.53,9.14-10,16.15-18.92,17.27a13.64,13.64,0,0,0-4.22-.21c-.41,0-.82.12-1.22.19-6.5-.73-11.46-2-15.08-6.75,3.51,3.39,8.09,4.43,13.87,5.05,12.65,1.37,19.39-7.36,24.88-19,.19,1.19.42,2.34.7,3.47Zm-43.4,4.68a30.29,30.29,0,0,1-7.47,7.72c-9.1,6-21,5.1-27.63-3.27,6.79,6.74,17.66,7.12,26.09,1.54a31.56,31.56,0,0,0,8-8.48c.32.89.65,1.72,1,2.49ZM275.1,197.9a26,26,0,0,0-4,4.3c-3.11,4.08-5.88,9.84-8,14.67a194.46,194.46,0,0,0-8,21.66c-2.76,9-5.28,19.15-6.07,28.68-.42,5.14-2.58,7.74-6.79,9.1-5.56,1.8-12.69,1.84-17.1-3.14l-1.2-1.36h0c4.42,4.61,11.34,4.52,16.76,2.77,4.21-1.36,6.37-4,6.79-9.1.79-9.53,3.31-19.69,6.07-28.68a194.58,194.58,0,0,1,8-21.66c2.14-4.84,4.91-10.59,8-14.67.74-1,3.45-4.41,4.74-4.7a5.68,5.68,0,0,1,.5,1.16c.09.3.18.62.26,1ZM237,111.24C187,95.52,119.49,78.24,70,94.91A80.31,80.31,0,0,0,38.1,114.55c-7.45,7.67-13.6,17.67-15.42,29.23-2.57,16.33,4.14,30.82,13.7,42.23l.6.7q-1.09-1.18-2.14-2.43c-9.56-11.41-16.27-25.9-13.7-42.23,1.82-11.57,8-21.57,15.42-29.23A80.31,80.31,0,0,1,68.43,93.18c50.12-16.88,118.74,1,168.89,16.91l-.3,1.15Zm-6.13,1.67a13.61,13.61,0,0,1,4,7.85c-.6,3-1.14,6.08-1.63,9.12a5.77,5.77,0,0,1-9.81-.57,5.48,5.48,0,0,0,3.93,1.29c4.4-.34,6.76-5.35,6.19-10.1a16.12,16.12,0,0,0-2.68-7.59ZM441,388.16c-4,8.62-10.06,16.66-17.81,17.35s-13-.71-16.52-5.34c3.45,3.25,8.34,4.2,15,3.61,8.09-.72,14.32-9.41,18.31-18.44.32,1,.67,1.9,1,2.82ZM424.93,320.1c2.16,1.71,2.62,3.82,2.37,7.71-.28,4.45-.94,9.08-1.48,13.51-.76,6.25-1.51,12.51-2.11,18.79-.39,4.19-1.63,18.26-.63,26.45-.34.38-.68.74-1,1.08-1.83-7.26-.32-24.54.13-29.26.59-6.28,1.34-12.53,2.11-18.79.54-4.43,1.2-9.05,1.48-13.51.17-2.69,0-4.53-.83-6Zm40.84,1.09a3.84,3.84,0,0,1,1.85,3.79,4.12,4.12,0,0,1-.08.56c-.05.28-.12.56-.18.84-.2.85-.41,1.7-.61,2.55-.69,2.93-1.34,5.87-1.91,8.83a143.57,143.57,0,0,0-2.89,26.47c0,8.29,1,17.72,4.92,24.82,1.17,2.1,2,4.55,1.25,7-1.15,3.87-5.25,5-8.31,5.67-5.82,1.26-10.23-1.12-13.47-5.24A12.39,12.39,0,0,0,458.25,400c3.06-.66,7.16-1.79,8.31-5.67.74-2.5-.08-4.94-1.25-7-3.94-7.1-5-16.54-4.92-24.82A143.57,143.57,0,0,1,463.29,336c.58-3,1.22-5.91,1.91-8.84.2-.85.41-1.7.61-2.55.06-.28.13-.56.18-.84a4.12,4.12,0,0,0,.08-.56,4.28,4.28,0,0,0-.31-2.05Zm-75.17-2.58a21.85,21.85,0,0,1,3.59,4.82c4.21,7.09,6.07,16.24,6.45,25.3q-.17,2.33-.31,4.67c-.23,3.74-.44,7.75-.54,11.82-1.94,13.5-7.38,29.72-17.59,37.14-4.36,3.17-7.63,3.17-12.53,3.53-7,.5-13.69-.74-18.9-6.69l-.75-.87c5.08,5.21,11.44,6.31,18.11,5.83,4.91-.35,8.17-.35,12.53-3.53,10.68-7.77,16.15-25.17,17.84-39,1.57-12.89.72-28.9-5.84-39.92a31.73,31.73,0,0,0-2-3.09ZM371,314.87h.1l1,1.2q.28.33.53.68l-.3.24-.13.12a9.61,9.61,0,0,0-1.21-2.23Zm2.59,15.21,0,0q-.31-.28-.58-.57a15.58,15.58,0,0,1-4.26,5.91c-5.51,11.07-10.8,38.72-2.27,50.12-10.65-10-5.09-40.17.73-51.85a15.58,15.58,0,0,0,4.26-5.91c.18.19.37.38.58.57a12.21,12.21,0,0,1,1.59,1.77ZM499,531c-18.53-14-42.16-15.31-63.48-10.12a93.84,93.84,0,0,0-30.32,14q-1.15-.59-2.29-1.21a94.33,94.33,0,0,1,31.07-14.5c22.06-5.36,46.6-3.75,65.4,11.63L499,531Zm11.42,11.6c-35,20.51-82.16,22.68-117.38,1.88a98.44,98.44,0,0,0-17,20.21l-2.05-.9a98,98,0,0,1,17.55-21c35.29,20.84,82.52,18.63,117.58-2q.68.9,1.34,1.84Zm-34.59,45.92c.48.5,1,1,1.46,1.64a45.34,45.34,0,0,1,7.5,13.83l-1,0a47.25,47.25,0,0,0-8-15.43Zm-258.21-69a27,27,0,0,0-2.94-2.64l-.11-.07a4.19,4.19,0,0,1-1.5-1.7l.07,0a27.57,27.57,0,0,1,4.48,4.37ZM231,518.46a31.71,31.71,0,0,1,7,11.45l-1,0a32.15,32.15,0,0,0-6-11.43Zm71.9-58.66a67.27,67.27,0,0,1-16.21,15.62c-15.23,10.6-34.61,12.76-50.69,3.39a45.29,45.29,0,0,1-11.78-9.93,45,45,0,0,0,10.24,8.2c16.08,9.37,35.47,7.2,50.69-3.39A68.73,68.73,0,0,0,303,455.84q0,2-.1,4ZM239,313.86c-11.27-.63-22.53-2-33.73-3.5-.07,11.69-.22,23.79-1.32,35.3-3.69,38.69-18.51,73.13-46.42,95.71-27.15,22-64.32,28-95.62,15.2a45.53,45.53,0,0,0,5.4,25.59,44.16,44.16,0,0,0,4.83,7,44.53,44.53,0,0,1-6.37-8.69,45.53,45.53,0,0,1-5.4-25.59c31.3,12.8,68.47,6.75,95.62-15.2,27.91-22.57,42.73-57,46.42-95.71,1.1-11.51,1.25-23.61,1.32-35.3,12,1.6,24.14,3.08,36.24,3.63l-1,1.6ZM169.87,485.21c2.19,1.9,3.51,4.83,3.07,9.15-1.8,17.93-29.14,24.93-43,26.5-5.56,13.73-4.61,28.24,2.43,40.42l-.3.29c-8.16-12.57-9.54-27.94-3.67-42.44,13.84-1.56,41.18-8.56,43-26.5a10.94,10.94,0,0,0-1.54-7.42ZM130.4,263.45c-11.45-12.22-29.71-18.23-44.66-16.25-26,3.44-47.07,17.45-61.39,43a101.23,101.23,0,0,0-7.29,16.31c-8.28,23.85-8.6,51.49-2.27,76A95.4,95.4,0,0,0,34.6,421.25c-9.94-10.87-17.25-24.68-21.34-40.49-6.34-24.51-6-52.15,2.27-76a101.22,101.22,0,0,1,7.29-16.31c14.32-25.54,35.43-39.55,61.39-43,15.64-2.07,34.9,4.6,46.2,18ZM137,397.16a10.77,10.77,0,0,1,3.5,6.5c.49,4.07-1.73,7.29-4.39,9.54-1.69,1.43-3,1.83-5.07,1a3.88,3.88,0,0,1-2.1-2,4.32,4.32,0,0,0,.56.28c2.05.86,3.38.46,5.07-1,2.66-2.25,4.89-5.48,4.39-9.54a10,10,0,0,0-2-4.77Zm-9.71,7.25c-2.41-1.65-6.61-2.1-8.85-2.26-11.54-.82-23.18,4.06-32.62,11.55A66,66,0,0,0,65.09,442c-.63-.24-1.26-.49-1.89-.74a65.79,65.79,0,0,1,21-29.26c9.44-7.5,21.08-12.37,32.62-11.55,2.74.2,8.42.83,10.16,3.56a3.07,3.07,0,0,1,.23.43Zm51.36-97.6c-4.53-.56-9.06-1.07-13.6-1.49a69.52,69.52,0,0,1-6.11,20.18c-8.29,17.25-17.55,28.68-32,39.11a58.86,58.86,0,0,1-23.18,10,53.19,53.19,0,0,1-7.71,1c-.73,0-1.47.05-2.2,0l-.62,0-.21,0a3.18,3.18,0,0,1-2.64-2.05,3,3,0,0,0,1.1.32l.21,0,.62,0c.73,0,1.47,0,2.2,0a53.19,53.19,0,0,0,7.71-1,58.85,58.85,0,0,0,23.18-10c14.45-10.43,23.71-21.86,32-39.11a69.53,69.53,0,0,0,6.11-20.18c5.05.48,10.09,1.05,15.13,1.69v1.54Zm-37.09-2.75a140.8,140.8,0,0,0-29.12,2.66c-12.26,2.55-30,8.4-38.62,19.33-3.9,4.94-4.27,9.07-1.73,12.57-4.09-3.85-4.37-8.52.2-14.3,8.62-10.93,26.35-16.79,38.62-19.33a143.09,143.09,0,0,1,30.83-2.65q-.08.86-.17,1.72Zm-26.24,36a4.2,4.2,0,0,1,2,3.65,4.75,4.75,0,0,1-2.15,3.9c-10.88,9.05-30.77,9-43.3,5.19a27,27,0,0,1-13.39-8.63,28,28,0,0,0,11.86,6.91c12.52,3.86,32.42,3.86,43.3-5.19a4.75,4.75,0,0,0,2.15-3.9,4.36,4.36,0,0,0-.41-1.92ZM224.39,546c-26.86.81-59,7.08-78.72,29.24q-1-.64-1.89-1.33c20.17-23,53.48-29.1,80.85-29.69q-.1.89-.24,1.78Zm67.77,7.4a272,272,0,0,0-52.22-7.32,48.26,48.26,0,0,1-3.5,14.1,56.14,56.14,0,0,1-7.49,13C212.57,594.41,183.38,600.81,160,596a59.44,59.44,0,0,1-22.34-9.66q-1.14,2-2.15,4c-4.7,9.54-6.84,20.12-3.51,30.72a39.34,39.34,0,0,0,7.6,13.62,40,40,0,0,1-9.14-15.35c-3.33-10.6-1.19-21.18,3.51-30.72q1-2,2.15-4a59.43,59.43,0,0,0,22.34,9.66c23.36,4.81,52.55-1.6,68.93-22.79a56.14,56.14,0,0,0,7.49-13,48.27,48.27,0,0,0,3.5-14.1,272.46,272.46,0,0,1,54.09,7.77c-.11.43-.22.85-.33,1.28ZM155.52,495.28a43.06,43.06,0,0,0-12.12,7.48c-1.79.75-3.67,1.45-5.58,2.08,5.12-5.33,11.47-9.78,17.39-11.72a11.76,11.76,0,0,1,2.1-.42,9.23,9.23,0,0,1-1.78,2.59ZM469.18,618.85c-18-3.32-36-10.15-53-17.38-16.09-6.85-31.9-14.5-47.92-21.52-9.6,24.71-3.55,49.65,10.94,66.48-15.6-16.83-22.41-42.65-12.48-68.21,16,7,31.83,14.67,47.92,21.52,17.48,7.44,36.06,14.46,54.57,17.66,0,.49,0,1,0,1.45ZM387.87,63.52q-1.29-.17-2.57-.31c-26.34-2.84-58.64,5.67-78,27.57a54.61,54.61,0,0,0-8,12.41l-2.17-.38a55.82,55.82,0,0,1,8.66-13.76c19.35-21.9,51.65-30.41,78-27.57q2,.22,4,.51.08.77.11,1.53Zm-9.33-22.59a44.57,44.57,0,0,0-3.41-3.27c-15.77-13.58-35.3-17.12-54-10.57-28.09,9.85-45.93,37.94-55.6,68.65l-1.92-.5c9.58-31.19,27.52-59.91,56-69.89,18.68-6.55,38.21-3,54,10.57a44.43,44.43,0,0,1,4.94,5ZM558,287.8c11,21.59,23.62,42.64,39.08,60.26-16.17-18-29.26-39.69-40.62-62,47.63-31.91,120.93-37,165,4.9,1.89,1.8,3.71,3.7,5.42,5.68q-1.87-2-3.88-3.95c-44.07-41.89-117.36-36.81-165-4.9ZM445.86,128.28c-12.53,3.54-29.29,10.43-34.53,22.07-.61,1.35-1.15,3.15-.47,4.6l0,.07a4.46,4.46,0,0,1-1.57-1.8c-.68-1.45-.13-3.25.47-4.6,5.54-12.31,24-19.31,36.64-22.65q-.26,1.17-.58,2.31ZM628.74,28.84c-11.58-12.08-32.55-14.11-46.57-8.71A79.36,79.36,0,0,0,557.8,35.35c-20.72,18.55-35,47.59-44.16,76l-2.07-.09c9.16-28.89,23.56-58.69,44.68-77.6A79.38,79.38,0,0,1,580.63,18.4c14.66-5.64,36.93-3.16,48.11,10.44Z"/><path class="cls-3" d="M223.6,122.54c-.85-1.57-1.52-3.92-2.25-5.14C197.88,133.89,200.19,228,200.14,293.6c19,2.77,36.6,5.54,50.54,5.91,3.81-4.59,7.32-8.71,13.51-7.63,4,.71,8.65,2.8,9.08,4.9,1.7-.4,3.41-.77,5.14-1s6,.29,5.71,2.16h0a6.73,6.73,0,0,1-.27,2c-1.72,3.59-10.08,4.61-13.31,5.28q-2,.25-4.08.44c-19.74,27-35.13,69.32-37.34,103.94-.74,17.06,3.06,42.54,17,52.73,24.12,17.59,49.89-16,59.8-36.54.25-25.29-4.21-142.65,28.78-146,5.33-.55,9.83,2.32,9.63,8.75-31.87,11.77-9.81,192.9-28.1,255.52,11.53,3.47,23,7.33,34.25,11.72a107.34,107.34,0,0,1,25.38-31A91.07,91.07,0,0,1,366.21,514c-19.19-25-21.41-61.32,5.29-81.81,18.47-14.18,49-18.33,66.67-1.53,12.17,11.56,11.31,32.2-1,43.12-.58.51-.58.78-1.45.44s-.39-.55.08-1c11.75-11.28,7.62-34.69-7.06-43.63-19.22-11.72-45.6-2.71-59.13,14.33-19,24-9.25,56.28,12,76.41,21.42-15.63,48-23,74.71-21.92,24.57,1,43.54,10.89,56.38,24.49a123,123,0,0,0,26.52-31.48c-80.73-17.24-80.57-148.48-7-208.52-6.21-12.64-14-26.13-19.42-38.74-1-2.29-1-3.56,1.17-5.06,3-2.07,9-2.89,11.8-1.41,12.41-6.85,25.43-24.23,20-39.84-2.43-7-6.77-6.84-11.5-3.89-19.33,12.09-31.66,43.91-34.06,67.18.56,2.35,2,4.57,2.77,6.92,1.32,4.08-.58,7.06-4.56,7.82-6.15,1.17-12.15-3.41-14.48-9.41-14.22-36.67-7.68-110.71,3.29-150.31a187.23,187.23,0,0,0-29.75,1.33c-1.24,22.37-21.29,46.44-42.76,45.64-15.25-.57-22.64-12.56-11.83-26.23,10.48-13.27,31.37-20.36,47.17-23-.06-29.78-22.27-46.68-46.14-54.23a45.84,45.84,0,0,1-1.16,14.6c-5.86,24.15-28.77,36.64-49.83,41.44-20.15,4.59-42.7,3.54-64.45.05-3.14,17.34.85,34.58,18.23,38.76,1.69.41,2.8.36,4,1s.6,1.15-.38,1.24a18.47,18.47,0,0,1-10.22-1.9c-10.57-5.61-15.71-19.14-15.68-31.27a61.85,61.85,0,0,1,.59-8.38c-10.15-1.75-20.09-4-29.48-6.44-9.55,40-9.77,81.74-10.81,123,1.74-6.09,3.74-12.08,5.91-18,4.54-12.33,12.85-28.6,24.38-31.46,8.64-2.15,15.57,1,18.87,10.59,6.31,18.26-3.93,56.06,2.11,64.92,5.4-2.92,14.32-12,17.36-17.44.22-.4.45-.86.68-1.35,1-17,7.1-36.42,14.52-46.12,7.24-9.47,17.38-14,28.81-13.18a21.26,21.26,0,0,1,16.13,8.88,12.24,12.24,0,0,1,2.56,7.31c-.12,2.8-2.24,3.59-4.56,3.77-7.08.55-2.57-12.68-14.59-11.18-20.1,2.5-30.9,59.67-20.87,70.67,11.1.3,21.09-23.79,25-43.74,2.67-5.2,17.62-2.44,18.33,1.17-.79,6.93-5.78,26.51,0,42.22C389.19,248.11,391.5,232,394.1,219c.15-.77.3-1.54.46-2.31l0-.16a204.69,204.69,0,0,1,2.57-24.57c.73-4.06,2.78-7.1,7-6.79,1.81.13,10.3,2.75,10.87,4.44-1.3,14.8-3.3,28.87-2.51,43.82,5.4-15.33,12.11-29.17,21.64-42,3.17-4.26,6.56-5.73,11-5.41,7.92.56,12.79-.08,16.56,9,7.39,17.79-1.66,58.84,4.72,72.14-1,4.17-6.92,6.46-9.76,6.62-8.9.5-11.7-10.76-12.48-18.52-1.71-17.08,2.59-50.32-2.15-57.64-19.43,12.5-25.86,50.11-27.41,55,.32,1.42,3.8,11.6,4.19,12-.6,1.28-8.55,6-9.78,6.44-6.62,2.43-10.16-3.61-11.78-9.46a85.65,85.65,0,0,1-2.42-15A97,97,0,0,1,388.41,263c-3.86,7.08-9.59,8.78-15.11,7.94-11.26-1.73-13.92-11.5-14.23-28-6,12.44-10.72,29.73-26.75,28-8.12-.88-13.16-2.25-16.33-11.42a37.27,37.27,0,0,1-1.57-6.6c-3.19,5.85-6.91,11-10.75,13.59-10.46,6.91-24.75,3.43-27.41-11-2.22-12,2-30.79,2.17-43.85.12-4.7.17-14.12-1.23-18.54-2.46-7.8-8.06-.82-10.5,2.39-8.56,11.23-21,44.69-22.87,67.07-.29,3.52-1.45,5-4.53,6-4.28,1.38-10.51,1.81-14.09-2.25,1.93-11.75,2.55-117,15.5-161.25C189.52,88.77,118.7,69.82,67,87.23,25.11,101.33-1.36,144.46,32,184.33c24,28.69,66.2,32,98,21s45.95-27.92,60.23-57.89a130.25,130.25,0,0,1,9.47-22.82,34.25,34.25,0,0,1,13.27-13c7.06-3.64,15.61-3.36,16.85,6.93.66,5.53-4.14,8-6.32,4ZM517.24,528.27c27.49,35.25,18.23,88.51-35.16,84.26-3.52,44.81-35.11,62.9-68.8,62.32-53.32-.91-90.08-57.48-66.7-111.18-10.66-4.25-21.31-8-32.21-11.37-18.07,72.95-73.79,120.58-149,109.14-35.54-5.41-65.13-38.22-46.62-78.39a72.88,72.88,0,0,1,8.08-13.51C114.59,555,110,534.34,118,513.6c-34.66.27-72.92-22.09-67.4-65.49.16-1.3.38-2.58.63-3.85q-2.35-1.33-4.64-2.83C17.33,422.25.81,384.81,0,348.69c-.67-31.19,7.83-64,28.61-86.12a89.22,89.22,0,0,1,62.12-28.66c19.21-.91,40,3.59,54.62,18.43,9.72,9.88,14.53,23,15.06,36.43,6.91.57,13.81,1.34,20.61,2.2-.52-39.94-2.9-83,3.74-120.53a94.15,94.15,0,0,1-46.6,37.86c-32.13,12-73.66,11.84-102.45-10.19C9.84,178.28-3.59,143.39,14.42,112.62,28.94,87.8,57,76.53,82.8,72.31c53.66-8.77,109.41,4.41,161.57,19.13,9.94-30.76,26.33-58.74,53.76-74,21.55-12,52.76-13,74.75-1.43C387.42,23.7,399.57,37.53,403,54c2,.46,3.88,1,5.75,1.53,24.9,7.43,47.92,27.34,48.7,57.38a247.64,247.64,0,0,1,31-1.28c13.54-44.87,40.28-98.08,86-109,100.65-24.14,109.07,132-69.2,114.25-10.07,36.58-13.92,88.43-8.57,127,5.23-21.23,20.74-57.52,43.31-58.64,8.72-.43,15.52.15,20,10.29,8.81,19.84-10,49.15-26.84,52.37l13.38,24.63c49.21-32.12,134.2-35.86,181.08,5.65,56.85,50.35,11.5,126.09-58.07,125.35C608,402.75,564.84,348,537.49,293.67,490.94,336,465.1,430.29,524.41,472.93a64.12,64.12,0,0,0,19.39,9.56,71.07,71.07,0,0,0,6.32-21.61c3.13-28.58-6.71-50.81-35.46-51.52-2.32-.06-2.06.11-.6-1.45s1-1.59,2.94-1.81c23.88-2.82,38.56,11.83,41.69,36.92,1.69,13.56-1.44,27.87-7.34,41.17,38.22,6.08,74.68-26,60.19-63.59-.83-2.16-1.13-3.37,1.43-4.33,3.89-1.46,5-.14,7.19,2.53,8.57,10.24,4.39,30.33-1,40.8-13.67,26.59-40.72,35.22-67.64,33.49q-2.23-.14-4.39-.39c-8,14.53-18.93,27.24-29.89,35.56ZM396,531.52c33.46,21.18,75.41,18.86,108.51-2.66-15.08-14.5-39.27-23.14-71.79-15.72A103.67,103.67,0,0,0,396,531.52Zm113.13,2.28C474.38,555.31,426,558,390.57,536a100.52,100.52,0,0,0-22,27.12c31.67,13.51,68.64,33.18,101.8,40,.26-6.84-6-13.51-8.5-20.11-.45-1.18,2.73-1.93,3.69-1.17,3.76,3,10.72,6.89,15.47,23.1,44.85,3.49,52.45-42.06,28.14-71.17Zm-378,30.52c22.08-24.22,59.13-32.72,95.54-33.31-1.54-8.42-5.82-16.25-12.53-21.4-.24-.18-.84-.45-.47-.62s.75.14,1.1.27c11,4,17.27,12.13,19.32,21.74a292.39,292.39,0,0,1,63.44,7.91c6.46-31,7.67-64.59,8.19-96.4-7.33,11.41-11.92,18.05-22.77,25.6-25.07,17.45-58.18,8.75-68.39-24.17-12.94-41.68,7.9-103.52,31-137.59-14.69-.27-30-2.18-45.44-4.26-.08,15.54-.37,29.07-1.32,39-3.53,37-17.45,70.77-45.1,93.13C126.73,456,88.78,462,57.26,447.36c-.18,1.17-.32,2.35-.42,3.53-3.29,39.18,31.93,58.31,63.09,58.35,7.3-14.55,21.74-26.57,37.37-27.51,4.95-.3,11.15,1,10.45,8-1.58,15.69-29.1,22.38-41.9,23.48-8.27,18.44-5.12,37.31,5.34,51.1ZM130,405.13c1.14-8.7-7.38-10.36-13.51-10.8C92,392.59,65.93,414.75,58.65,440.91a82.18,82.18,0,0,0,18.89,5.91c41,7.62,76.9-23.76,92.92-62.92,9.24-22.58,10.84-52.24,10.68-84.37-7-.9-14-1.71-20.92-2.31a65.63,65.63,0,0,1-6.14,22.29c-8.07,16.8-16.85,27.64-30.92,37.8-15.87,11.45-32.23,10.46-32.08,10.43,17-3.93,41.62-29.67,48.2-46.62a75.37,75.37,0,0,0,5.18-24.82A150.43,150.43,0,0,0,109.74,299c-13.53,2.81-31.35,9-40.36,20.45-6.66,8.45-5.39,16.76,4,22.44,9.88,6,24.87,2.79,34.25-2.41,1-.54,1.58-1,2.71-.83a4.39,4.39,0,0,1,1.07.32c1.15.54.39,1-.25,1.57-10,8.31-29,8.24-40.69,4.63-17.18-5.29-20.74-21.25-7.67-34.66s31.28-18.81,50.61-21.35a192.24,192.24,0,0,1,30.74-1.29A54.3,54.3,0,0,0,134.07,261c-11.43-15.62-32.89-24-50.79-21.6C55.58,243.07,34,258.32,19.63,284c-15.56,27.75-18,64-9.93,95.32C16.52,405.7,31.9,426.39,52.81,438c9.28-30,41.14-51.39,70-46.92,7.09,1.1,17.85,7.74,9.27,15-.78.66-1.09.95-2.18.49-.83-.35-.06-.48.06-1.43ZM138.43,572a53.27,53.27,0,0,0,20.21,10.9c25.21,7.25,57-5.1,66.64-32.36a37.48,37.48,0,0,0,2.1-12.45c-34.63.2-69.22,8.61-88.94,33.91Zm96.45-33.83a42.91,42.91,0,0,1-3.35,16.26c-11.95,29.06-45.83,39.37-73.06,33.77a56.37,56.37,0,0,1-23.7-11,71.87,71.87,0,0,0-4,7.13c-18.49,37.54,12.65,65,45,70,58.47,9.12,107.38-51.14,120.11-107.4a279.27,279.27,0,0,0-60.93-8.77ZM128.4,508.36c8.67-1.56,31-8.44,31.86-19.43.27-3.41-5-2.25-6.46-1.77-9.62,3.15-19.86,12.13-25.4,21.2ZM440.13,371.22c-3.39,12.86-10.79,25.72-19.28,26.47-11.12,1-15.76-2.29-17.65-15-2.29-15.37.28-42.79,2.21-59.42.4-3.43,0-3.82,3.31-5.45a13.5,13.5,0,0,1,10.6,0c3,1.49,3,2.28,2.76,5.5-.79,12.3-8.88,58.67-1.64,67,15.79-10.09,18.93-47.31,24.08-69.57.93-4,2.33-6.14,6.47-4.7,2.13.75,8.42,4.59,11.41,4.22.36.15-12.8,44-.27,66.51,2.28,4.11.84,5.92-5,7.19-11.49,2.49-16-13-17-22.79Zm-72.3-56.82c-3.31.29-6.64.46-9.94.83a8.32,8.32,0,0,0-5.67,3.45c-16.24,21.27-19.93,52.54-1.39,73.75,4.52,5.17,10.37,6.1,16.52,5.65,4.39-.32,7.27-.21,11.07-3,16.44-12,22.74-54.21,11.09-73.8-2.66-4.48-4.08-5.91-9.17-5.9a10.16,10.16,0,0,0-6.69,2c-2.19,1.87-2.58,3.44-.26,5.56,13.12,12,8.43,56.19-6.76,64.88-16.41-9.63-8.86-47-2.29-59.3,3-1.91,7.18-9.81,3.48-14.17Zm-3.23,256.8c-18.74,42.68,7.5,88.56,46.92,94.59,27.12,4.75,62.13-20.15,60.18-54-34.84-5.34-74.3-26.38-107.1-40.58ZM389.9,56.3c-2.17-.37-4.32-.67-6.43-.9-28.09-3-60.89,6.44-80.45,28.58a63,63,0,0,0-11.1,19.16c16.89,3.25,34.38,5.21,49.5,3.42,17-2,34.89-9.27,44.18-25.65A36.61,36.61,0,0,0,389.9,56.3ZM288.13,102.39c4.87-13.39,14-24.79,25-33.24,20-15.32,49.79-20.31,75.62-17.58a45.37,45.37,0,0,0-13.91-21c-17-14.63-37.61-17.83-56.73-11.13-31.34,11-49.9,43.42-59.16,76,8.95,2.36,18.89,4.87,29.14,7ZM551.64,282.32c28.21,56.26,63.45,102.53,124.71,111.34,47.72,6.86,97.65-59.9,46.52-108-45.91-44.14-122.81-37.52-171.23-3.38ZM449.76,118.85c-14.05,3.14-36.56,10.67-43.29,25.62-4.49,10,5.17,14.89,13.48,12.55,16-4.49,28.13-20.46,29.8-38.17Zm56.88-6.67c35.22,1.55,69,3,100.17-17.54,17.44-11.47,36.62-33.71,30.12-58C630,10.74,598.35,5.07,579.08,12.49c-38.1,14.66-60.55,59.94-72.44,99.69Z"/></g></g></svg>