<svg xmlns="http://www.w3.org/2000/svg" viewBox="0 0 753.44 674.87"><defs><style>.cls-1{fill:#fefce4;}</style></defs><title>thank_you3_2</title><g id="Layer_2" data-name="Layer 2"><g id="Layer_1-2" data-name="Layer 1"><path class="cls-1" d="M223.6,122.54c-.85-1.57-1.52-3.92-2.25-5.14C197.88,133.89,200.19,228,200.14,293.6c19,2.77,36.6,5.54,50.54,5.91,3.81-4.59,7.32-8.71,13.51-7.63,4,.71,8.65,2.8,9.08,4.9,1.7-.4,3.41-.77,5.14-1s6,.29,5.71,2.16h0a6.73,6.73,0,0,1-.27,2c-1.72,3.59-10.08,4.61-13.31,5.28q-2,.25-4.08.44c-19.74,27-35.13,69.32-37.34,103.94-.74,17.06,3.06,42.54,17,52.73,24.12,17.59,49.89-16,59.8-36.54.25-25.29-4.21-142.65,28.78-146,5.33-.55,9.83,2.32,9.63,8.75-31.87,11.77-9.81,192.9-28.1,255.52,11.53,3.47,23,7.33,34.25,11.72a107.34,107.34,0,0,1,25.38-31A91.07,91.07,0,0,1,366.21,514c-19.19-25-21.41-61.32,5.29-81.81,18.47-14.18,49-18.33,66.67-1.53,12.17,11.56,11.31,32.2-1,43.12-.58.51-.58.78-1.45.44s-.39-.55.08-1c11.75-11.28,7.62-34.69-7.06-43.63-19.22-11.72-45.6-2.71-59.13,14.33-19,24-9.25,56.28,12,76.41,21.42-15.63,48-23,74.71-21.92,24.57,1,43.54,10.89,56.38,24.49a123,123,0,0,0,26.52-31.48c-80.73-17.24-80.57-148.48-7-208.52-6.21-12.64-14-26.13-19.42-38.74-1-2.29-1-3.56,1.17-5.06,3-2.07,9-2.89,11.8-1.41,12.41-6.85,25.43-24.23,20-39.84-2.43-7-6.77-6.84-11.5-3.89-19.33,12.09-31.66,43.91-34.06,67.18.56,2.35,2,4.57,2.77,6.92,1.32,4.08-.58,7.06-4.56,7.82-6.15,1.17-12.15-3.41-14.48-9.41-14.22-36.67-7.68-110.71,3.29-150.31a187.23,187.23,0,0,0-29.75,1.33c-1.24,22.37-21.29,46.44-42.76,45.64-15.25-.57-22.64-12.56-11.83-26.23,10.48-13.27,31.37-20.36,47.17-23-.06-29.78-22.27-46.68-46.14-54.23a45.84,45.84,0,0,1-1.16,14.6c-5.86,24.15-28.77,36.64-49.83,41.44-20.15,4.59-42.7,3.54-64.45.05-3.14,17.34.85,34.58,18.23,38.76,1.69.41,2.8.36,4,1s.6,1.15-.38,1.24a18.47,18.47,0,0,1-10.22-1.9c-10.57-5.61-15.71-19.14-15.68-31.27a61.85,61.85,0,0,1,.59-8.38c-10.15-1.75-20.09-4-29.48-6.44-9.55,40-9.77,81.74-10.81,123,1.74-6.09,3.74-12.08,5.91-18,4.54-12.33,12.85-28.6,24.38-31.46,8.64-2.15,15.57,1,18.87,10.59,6.31,18.26-3.93,56.06,2.11,64.92,5.4-2.92,14.32-12,17.36-17.44.22-.4.45-.86.68-1.35,1-17,7.1-36.42,14.52-46.12,7.24-9.47,17.38-14,28.81-13.18a21.26,21.26,0,0,1,16.13,8.88,12.24,12.24,0,0,1,2.56,7.31c-.12,2.8-2.24,3.59-4.56,3.77-7.08.55-2.57-12.68-14.59-11.18-20.1,2.5-30.9,59.67-20.87,70.67,11.1.3,21.09-23.79,25-43.74,2.67-5.2,17.62-2.44,18.33,1.17-.79,6.93-5.78,26.51,0,42.22C389.19,248.11,391.5,232,394.1,219c.15-.77.3-1.54.46-2.31l0-.16a204.69,204.69,0,0,1,2.57-24.57c.73-4.06,2.78-7.1,7-6.79,1.81.13,10.3,2.75,10.87,4.44-1.3,14.8-3.3,28.87-2.51,43.82,5.4-15.33,12.11-29.17,21.64-42,3.17-4.26,6.56-5.73,11-5.41,7.92.56,12.79-.08,16.56,9,7.39,17.79-1.66,58.84,4.72,72.14-1,4.17-6.92,6.46-9.76,6.62-8.9.5-11.7-10.76-12.48-18.52-1.71-17.08,2.59-50.32-2.15-57.64-19.43,12.5-25.86,50.11-27.41,55,.32,1.42,3.8,11.6,4.19,12-.6,1.28-8.55,6-9.78,6.44-6.62,2.43-10.16-3.61-11.78-9.46a85.65,85.65,0,0,1-2.42-15A97,97,0,0,1,388.41,263c-3.86,7.08-9.59,8.78-15.11,7.94-11.26-1.73-13.92-11.5-14.23-28-6,12.44-10.72,29.73-26.75,28-8.12-.88-13.16-2.25-16.33-11.42a37.27,37.27,0,0,1-1.57-6.6c-3.19,5.85-6.91,11-10.75,13.59-10.46,6.91-24.75,3.43-27.41-11-2.22-12,2-30.79,2.17-43.85.12-4.7.17-14.12-1.23-18.54-2.46-7.8-8.06-.82-10.5,2.39-8.56,11.23-21,44.69-22.87,67.07-.29,3.52-1.45,5-4.53,6-4.28,1.38-10.51,1.81-14.09-2.25,1.93-11.75,2.55-117,15.5-161.25C189.52,88.77,118.7,69.82,67,87.23,25.11,101.33-1.36,144.46,32,184.33c24,28.69,66.2,32,98,21s45.95-27.92,60.23-57.89a130.25,130.25,0,0,1,9.47-22.82,34.25,34.25,0,0,1,13.27-13c7.06-3.64,15.61-3.36,16.85,6.93.66,5.53-4.14,8-6.32,4ZM517.24,528.27c27.49,35.25,18.23,88.51-35.16,84.26-3.52,44.81-35.11,62.9-68.8,62.32-53.32-.91-90.08-57.48-66.7-111.18-10.66-4.25-21.31-8-32.21-11.37-18.07,72.95-73.79,120.58-149,109.14-35.54-5.41-65.13-38.22-46.62-78.39a72.88,72.88,0,0,1,8.08-13.51C114.59,555,110,534.34,118,513.6c-34.66.27-72.92-22.09-67.4-65.49.16-1.3.38-2.58.63-3.85q-2.35-1.33-4.64-2.83C17.33,422.25.81,384.81,0,348.69c-.67-31.19,7.83-64,28.61-86.12a89.22,89.22,0,0,1,62.12-28.66c19.21-.91,40,3.59,54.62,18.43,9.72,9.88,14.53,23,15.06,36.43,6.91.57,13.81,1.34,20.61,2.2-.52-39.94-2.9-83,3.74-120.53a94.15,94.15,0,0,1-46.6,37.86c-32.13,12-73.66,11.84-102.45-10.19C9.84,178.28-3.59,143.39,14.42,112.62,28.94,87.8,57,76.53,82.8,72.31c53.66-8.77,109.41,4.41,161.57,19.13,9.94-30.76,26.33-58.74,53.76-74,21.55-12,52.76-13,74.75-1.43C387.42,23.7,399.57,37.53,403,54c2,.46,3.88,1,5.75,1.53,24.9,7.43,47.92,27.34,48.7,57.38a247.64,247.64,0,0,1,31-1.28c13.54-44.87,40.28-98.08,86-109,100.65-24.14,109.07,132-69.2,114.25-10.07,36.58-13.92,88.43-8.57,127,5.23-21.23,20.74-57.52,43.31-58.64,8.72-.43,15.52.15,20,10.29,8.81,19.84-10,49.15-26.84,52.37l13.38,24.63c49.21-32.12,134.2-35.86,181.08,5.65,56.85,50.35,11.5,126.09-58.07,125.35C608,402.75,564.84,348,537.49,293.67,490.94,336,465.1,430.29,524.41,472.93a64.12,64.12,0,0,0,19.39,9.56,71.07,71.07,0,0,0,6.32-21.61c3.13-28.58-6.71-50.81-35.46-51.52-2.32-.06-2.06.11-.6-1.45s1-1.59,2.94-1.81c23.88-2.82,38.56,11.83,41.69,36.92,1.69,13.56-1.44,27.87-7.34,41.17,38.22,6.08,74.68-26,60.19-63.59-.83-2.16-1.13-3.37,1.43-4.33,3.89-1.46,5-.14,7.19,2.53,8.57,10.24,4.39,30.33-1,40.8-13.67,26.59-40.72,35.22-67.64,33.49q-2.23-.14-4.39-.39c-8,14.53-18.93,27.24-29.89,35.56ZM396,531.52c33.46,21.18,75.41,18.86,108.51-2.66-15.08-14.5-39.27-23.14-71.79-15.72A103.67,103.67,0,0,0,396,531.52Zm113.13,2.28C474.38,555.31,426,558,390.57,536a100.52,100.52,0,0,0-22,27.12c31.67,13.51,68.64,33.18,101.8,40,.26-6.84-6-13.51-8.5-20.11-.45-1.18,2.73-1.93,3.69-1.17,3.76,3,10.72,6.89,15.47,23.1,44.85,3.49,52.45-42.06,28.14-71.17Zm-378,30.52c22.08-24.22,59.13-32.72,95.54-33.31-1.54-8.42-5.82-16.25-12.53-21.4-.24-.18-.84-.45-.47-.62s.75.14,1.1.27c11,4,17.27,12.13,19.32,21.74a292.39,292.39,0,0,1,63.44,7.91c6.46-31,7.67-64.59,8.19-96.4-7.33,11.41-11.92,18.05-22.77,25.6-25.07,17.45-58.18,8.75-68.39-24.17-12.94-41.68,7.9-103.52,31-137.59-14.69-.27-30-2.18-45.44-4.26-.08,15.54-.37,29.07-1.32,39-3.53,37-17.45,70.77-45.1,93.13C126.73,456,88.78,462,57.26,447.36c-.18,1.17-.32,2.35-.42,3.53-3.29,39.18,31.93,58.31,63.09,58.35,7.3-14.55,21.74-26.57,37.37-27.51,4.95-.3,11.15,1,10.45,8-1.58,15.69-29.1,22.38-41.9,23.48-8.27,18.44-5.12,37.31,5.34,51.1ZM130,405.13c1.14-8.7-7.38-10.36-13.51-10.8C92,392.59,65.93,414.75,58.65,440.91a82.18,82.18,0,0,0,18.89,5.91c41,7.62,76.9-23.76,92.92-62.92,9.24-22.58,10.84-52.24,10.68-84.37-7-.9-14-1.71-20.92-2.31a65.63,65.63,0,0,1-6.14,22.29c-8.07,16.8-16.85,27.64-30.92,37.8-15.87,11.45-32.23,10.46-32.08,10.43,17-3.93,41.62-29.67,48.2-46.62a75.37,75.37,0,0,0,5.18-24.82A150.43,150.43,0,0,0,109.74,299c-13.53,2.81-31.35,9-40.36,20.45-6.66,8.45-5.39,16.76,4,22.44,9.88,6,24.87,2.79,34.25-2.41,1-.54,1.58-1,2.71-.83a4.39,4.39,0,0,1,1.07.32c1.15.54.39,1-.25,1.57-10,8.31-29,8.24-40.69,4.63-17.18-5.29-20.74-21.25-7.67-34.66s31.28-18.81,50.61-21.35a192.24,192.24,0,0,1,30.74-1.29A54.3,54.3,0,0,0,134.07,261c-11.43-15.62-32.89-24-50.79-21.6C55.58,243.07,34,258.32,19.63,284c-15.56,27.75-18,64-9.93,95.32C16.52,405.7,31.9,426.39,52.81,438c9.28-30,41.14-51.39,70-46.92,7.09,1.1,17.85,7.74,9.27,15-.78.66-1.09.95-2.18.49-.83-.35-.06-.48.06-1.43ZM138.43,572a53.27,53.27,0,0,0,20.21,10.9c25.21,7.25,57-5.1,66.64-32.36a37.48,37.48,0,0,0,2.1-12.45c-34.63.2-69.22,8.61-88.94,33.91Zm96.45-33.83a42.91,42.91,0,0,1-3.35,16.26c-11.95,29.06-45.83,39.37-73.06,33.77a56.37,56.37,0,0,1-23.7-11,71.87,71.87,0,0,0-4,7.13c-18.49,37.54,12.65,65,45,70,58.47,9.12,107.38-51.14,120.11-107.4a279.27,279.27,0,0,0-60.93-8.77ZM128.4,508.36c8.67-1.56,31-8.44,31.86-19.43.27-3.41-5-2.25-6.46-1.77-9.62,3.15-19.86,12.13-25.4,21.2ZM440.13,371.22c-3.39,12.86-10.79,25.72-19.28,26.47-11.12,1-15.76-2.29-17.65-15-2.29-15.37.28-42.79,2.21-59.42.4-3.43,0-3.82,3.31-5.45a13.5,13.5,0,0,1,10.6,0c3,1.49,3,2.28,2.76,5.5-.79,12.3-8.88,58.67-1.64,67,15.79-10.09,18.93-47.31,24.08-69.57.93-4,2.33-6.14,6.47-4.7,2.13.75,8.42,4.59,11.41,4.22.36.15-12.8,44-.27,66.51,2.28,4.11.84,5.92-5,7.19-11.49,2.49-16-13-17-22.79Zm-72.3-56.82c-3.31.29-6.64.46-9.94.83a8.32,8.32,0,0,0-5.67,3.45c-16.24,21.27-19.93,52.54-1.39,73.75,4.52,5.17,10.37,6.1,16.52,5.65,4.39-.32,7.27-.21,11.07-3,16.44-12,22.74-54.21,11.09-73.8-2.66-4.48-4.08-5.91-9.17-5.9a10.16,10.16,0,0,0-6.69,2c-2.19,1.87-2.58,3.44-.26,5.56,13.12,12,8.43,56.19-6.76,64.88-16.41-9.63-8.86-47-2.29-59.3,3-1.91,7.18-9.81,3.48-14.17Zm-3.23,256.8c-18.74,42.68,7.5,88.56,46.92,94.59,27.12,4.75,62.13-20.15,60.18-54-34.84-5.34-74.3-26.38-107.1-40.58ZM389.9,56.3c-2.17-.37-4.32-.67-6.43-.9-28.09-3-60.89,6.44-80.45,28.58a63,63,0,0,0-11.1,19.16c16.89,3.25,34.38,5.21,49.5,3.42,17-2,34.89-9.27,44.18-25.65A36.61,36.61,0,0,0,389.9,56.3ZM288.13,102.39c4.87-13.39,14-24.79,25-33.24,20-15.32,49.79-20.31,75.62-17.58a45.37,45.37,0,0,0-13.91-21c-17-14.63-37.61-17.83-56.73-11.13-31.34,11-49.9,43.42-59.16,76,8.95,2.36,18.89,4.87,29.14,7ZM551.64,282.32c28.21,56.26,63.45,102.53,124.71,111.34,47.72,6.86,97.65-59.9,46.52-108-45.91-44.14-122.81-37.52-171.23-3.38ZM449.76,118.85c-14.05,3.14-36.56,10.67-43.29,25.62-4.49,10,5.17,14.89,13.48,12.55,16-4.49,28.13-20.46,29.8-38.17Zm56.88-6.67c35.22,1.55,69,3,100.17-17.54,17.44-11.47,36.62-33.71,30.12-58C630,10.74,598.35,5.07,579.08,12.49c-38.1,14.66-60.55,59.94-72.44,99.69Z"/></g></g></svg>