<svg xmlns="http://www.w3.org/2000/svg" xmlns:xlink="http://www.w3.org/1999/xlink" viewBox="0 0 209.39 92.36"><defs><style>.cls-1{fill:#d5d5d7;}.cls-2{fill:#296582;}.cls-3{fill:#22586c;}.cls-4{fill:#fff;}.cls-5{fill:#efeeee;}.cls-6{fill:url(#linear-gradient);}</style><linearGradient id="linear-gradient" x1="142.07" y1="46.26" x2="166.05" y2="46.26" gradientUnits="userSpaceOnUse"><stop offset="0" stop-color="#faac34"/><stop offset="1" stop-color="#e02228"/></linearGradient></defs><title>rocket2</title><g id="Layer_2" data-name="Layer 2"><g id="Layer_1-2" data-name="Layer 1"><path class="cls-1" d="M184.49,39.68a.81.81,0,0,1,.17-.5.72.72,0,0,1,1.06-.11l6.7,5.8a.82.82,0,0,1,.1,1.11.72.72,0,0,1-1.06.11l-6.7-5.8A.81.81,0,0,1,184.49,39.68Z"/><path class="cls-1" d="M0,45.8,2.33,45a87.82,87.82,0,0,0,28.42-17.4C45,14.58,60.83,27.56,61,27.69a.82.82,0,0,1,.12,1.11.72.72,0,0,1-1.05.13c-.61-.51-15-12.28-28.32-.1a91.68,91.68,0,0,1-26.93,17,89,89,0,0,1,15.5,8.1A.81.81,0,0,1,20.54,55a.73.73,0,0,1-1,.26A81.27,81.27,0,0,0,2.33,46.55ZM24.75,58.54a.81.81,0,0,1,.14-.46.72.72,0,0,1,1-.18c2,1.54,4,3.17,5.79,4.84,8.53,7.8,17.53,5.87,23.58,2.87l.53-.26.37.47c1.29,1.66,4.71,1.8,6.67.82a.73.73,0,0,1,1,.37.81.81,0,0,1-.35,1.05c-2.37,1.19-6.1,1.1-8.07-.79C50,69.83,40.08,72.47,30.75,63.93c-1.79-1.64-3.7-3.24-5.69-4.75A.8.8,0,0,1,24.75,58.54Z"/><path class="cls-2" d="M86.8,58.28,68.48,63.06c-2.11.55-2.64.32-3.34-1.71-2.57-7.65-2.57-22.55,0-30.18.7-2,1.23-2.28,3.34-1.72L86.8,34.24l3.61.83-.55,22.34Z"/><path class="cls-3" d="M67.72,47V47l.43-8.54c.09-1.85.18-2.93.93-3.5s1.64-.32,3.25.14l.31.09c3,.85,6.17,1.59,9.2,2.31l4.23,1a1,1,0,0,1,.67,1.13.89.89,0,0,1-1.07.7l-4.22-1c-3-.72-6.19-1.46-9.27-2.32l-.32-.09a9.9,9.9,0,0,0-1.72-.4,11.71,11.71,0,0,0-.21,2.05l-.43,8.54a.89.89,0,1,1-1.78,0Z"/><path class="cls-1" d="M16.64,44.3a.8.8,0,0,1,.33-.65c3.12-2.25,5.92-4.15,8.55-5.82a.73.73,0,0,1,1,.27.81.81,0,0,1-.26,1.09c-2.61,1.65-5.38,3.54-8.48,5.77a.73.73,0,0,1-1-.21A.82.82,0,0,1,16.64,44.3Zm12.21-8a.8.8,0,0,1,.39-.7c11.17-6.37,19.67-7.74,27.54-4.43a.81.81,0,0,1,.42,1,.74.74,0,0,1-1,.44C48.8,29.48,40.7,30.83,30,37a.73.73,0,0,1-1-.32A.82.82,0,0,1,28.85,36.26Z"/><path class="cls-1" d="M24.32,45.59l.91-.64c15-10.53,26.58-12.57,34.33-6.06A.82.82,0,0,1,59.68,40a.72.72,0,0,1-1.05.13C51.6,34.23,41,36.08,27,45.64c14,10.23,24.61,12.22,31.63,5.91a.72.72,0,0,1,1.06.09.82.82,0,0,1-.08,1.11c-7.75,7-19.32,4.8-34.37-6.49Z"/><path class="cls-1" d="M46,63a.77.77,0,0,1,.74-.79,20.48,20.48,0,0,0,12.45-4.14.73.73,0,0,1,1,.19.82.82,0,0,1-.18,1.1,21.88,21.88,0,0,1-13.31,4.43A.77.77,0,0,1,46,63Z"/><path class="cls-1" d="M52.12,17.88a.81.81,0,0,1,.3-.63c2.93-2.3,6.18-2.92,9.16-1.73a10.56,10.56,0,0,1,6.13,8,.79.79,0,0,1-.58.94.75.75,0,0,1-.89-.61A9,9,0,0,0,61,17c-2.48-1-5.23-.44-7.73,1.52a.73.73,0,0,1-1-.16A.82.82,0,0,1,52.12,17.88Z"/><path class="cls-4" d="M21.82,13.82a.82.82,0,0,1,.07-.32c3-7,8.3-8.82,12.26-8.2,4.87.76,8.61,5.05,9.3,10.68a.78.78,0,0,1-.65.89.76.76,0,0,1-.84-.68c-.61-5-3.76-8.64-8-9.31-3.43-.54-8,1.09-10.68,7.28a.73.73,0,0,1-1,.4A.79.79,0,0,1,21.82,13.82Z"/><path class="cls-1" d="M52.12,74.48a.82.82,0,0,1,.15-.47.73.73,0,0,1,1-.16c2.5,2,5.25,2.51,7.73,1.52a9,9,0,0,0,5.19-6.81.75.75,0,0,1,.89-.61.79.79,0,0,1,.58.94,10.56,10.56,0,0,1-6.13,8c-3,1.18-6.23.57-9.16-1.73A.81.81,0,0,1,52.12,74.48Z"/><path class="cls-4" d="M21.82,78.56a.79.79,0,0,1,.44-.72.73.73,0,0,1,1,.4C25.9,84.42,30.5,86,33.92,85.51c4.27-.67,7.43-4.33,8-9.32a.76.76,0,0,1,.84-.68.78.78,0,0,1,.65.89C42.76,82,39,86.31,34.14,87.08c-4,.62-9.27-1.2-12.26-8.19A.82.82,0,0,1,21.82,78.56Z"/><path class="cls-5" d="M139.7,12.83c-14.31,0-23.44,1-36,6.26-10.9,4.5-14.2,7.08-15.19,15.1-.87,7-.87,18.42.56,25.41,1.89,9.32,5.06,9.41,13.34,12.91,57.52,24.36,107-22,107-26.44,0-4.68-23.2-19.63-28.83-22.58C170.5,18.2,154.79,12.83,139.7,12.83Z"/><path class="cls-2" d="M95.25,71.65c-2.55,0-1.72,2.44-1.91,4.91-.07,1-.14,1.72-.2,2.33-.55,5-4.22,6.13-8.36,7.29-1.75.5-1.53,1,.26,2.4,7.68,6.06,27,3.72,34.93.73,2.76-1,17.71-8.06,6.56-8.27a68.81,68.81,0,0,1-28.75-8.27,8.89,8.89,0,0,0-2.52-1.12Z"/><path class="cls-2" d="M95.25,20.7c-2.55,0-1.72-2.44-1.91-4.91-.07-1-.14-1.72-.2-2.33-.55-5-4.22-6.12-8.36-7.27-1.75-.5-1.53-1,.26-2.42,7.68-6,27-3.72,34.93-.71,2.76,1,17.71,8,6.56,8.27a69.05,69.05,0,0,0-28.75,8.25,8.9,8.9,0,0,1-2.52,1.12Z"/><path class="cls-1" d="M184.91,45.84A36.68,36.68,0,0,1,186.54,35a.88.88,0,0,1,1.12-.61,1,1,0,0,1,.57,1.19,35.49,35.49,0,0,0,0,20.72,1,1,0,0,1-.59,1.18.89.89,0,0,1-1.12-.62A39.18,39.18,0,0,1,184.91,45.84Z"/><path class="cls-1" d="M71.26,25.26a1,1,0,0,1,.05-.32l1.87-5.37a2.13,2.13,0,0,1,1-1.36,2.52,2.52,0,0,1,2.1.34l13.36,6.3a1,1,0,0,1,.45,1.24.87.87,0,0,1-1.18.47L75.59,20.27a6.61,6.61,0,0,0-.64-.27l-.08.22L73,25.58a.88.88,0,0,1-1.15.56A.94.94,0,0,1,71.26,25.26Z"/><path class="cls-1" d="M71.26,67.28a.94.94,0,0,1,.58-.88.88.88,0,0,1,1.15.56l1.87,5.35.08.22a6.65,6.65,0,0,0,.64-.27L88.94,66a.87.87,0,0,1,1.18.47,1,1,0,0,1-.45,1.24L76.32,74a2.53,2.53,0,0,1-2.1.35,2.13,2.13,0,0,1-1-1.36L71.32,67.6A1,1,0,0,1,71.26,67.28Z"/><path class="cls-6" d="M142.07,46.26a12,12,0,1,0,24,0,12,12,0,1,0-24,0Z"/><path class="cls-1" d="M135.83,46.26c0-10.5,8.18-19,18.23-19s18.23,8.54,18.23,19c0,.35,0,.69,0,1a.91.91,0,0,1-.94.89.94.94,0,0,1-.84-1c0-.32,0-.63,0-.95,0-9.46-7.38-17.16-16.45-17.16s-16.45,7.7-16.45,17.16S145,63.42,154.06,63.42a15.46,15.46,0,0,0,6.1-1.23.88.88,0,0,1,1.16.52,1,1,0,0,1-.49,1.23,17.17,17.17,0,0,1-6.77,1.37C144,65.3,135.83,56.76,135.83,46.26Z"/><path class="cls-1" d="M163.08,61.11a1,1,0,0,1,.39-.77,17,17,0,0,0,4-4.13.86.86,0,0,1,1.25-.21,1,1,0,0,1,.2,1.31,18.79,18.79,0,0,1-4.44,4.58.86.86,0,0,1-1.24-.24A1,1,0,0,1,163.08,61.11Z"/><path class="cls-4" d="M147.65,50a1,1,0,0,1,.27-.67L158.54,38.3a.86.86,0,0,1,1.26,0,1,1,0,0,1,0,1.33L149.17,50.7a.86.86,0,0,1-1.26,0A1,1,0,0,1,147.65,50Z"/><path class="cls-4" d="M151,53.55a1,1,0,0,1,.27-.67L159,44.93a.86.86,0,0,1,1.26,0,1,1,0,0,1,0,1.33l-7.66,7.95a.86.86,0,0,1-1.26,0A1,1,0,0,1,151,53.55Z"/><path class="cls-1" d="M134.88,20.1a.92.92,0,0,1,.87-.94,90.13,90.13,0,0,1,45.36,11.61,1,1,0,0,1,.38,1.27.87.87,0,0,1-1.2.4A88.42,88.42,0,0,0,135.79,21a.92.92,0,0,1-.91-.92Z"/><path class="cls-1" d="M125.12,20.88a.93.93,0,0,1,.77-.93l1.17-.17a39.32,39.32,0,0,1,4.42-.46.91.91,0,0,1,.94.89.93.93,0,0,1-.85,1,38,38,0,0,0-4.26.44l-1.18.17a.9.9,0,0,1-1-.81A1,1,0,0,1,125.12,20.88Z"/><path class="cls-1" d="M92.93,37.76a1,1,0,0,1,.06-.35c.32-.85.56-1.63.79-2.38.8-2.58,1.49-4.81,4.52-6.34a90,90,0,0,1,18.09-6.84.89.89,0,0,1,1.08.69.94.94,0,0,1-.66,1.14,88.24,88.24,0,0,0-17.74,6.71c-2.34,1.17-2.81,2.7-3.6,5.22-.23.74-.49,1.59-.83,2.49a.88.88,0,0,1-1.16.53A.94.94,0,0,1,92.93,37.76Z"/></g></g></svg>