<?xml version="1.0" encoding="utf-8"?>
<!-- Generator: Adobe Illustrator 21.0.0, SVG Export Plug-In . SVG Version: 6.00 Build 0)  -->
<svg version="1.1" id="Layer_1" xmlns="http://www.w3.org/2000/svg" xmlns:xlink="http://www.w3.org/1999/xlink" x="0px" y="0px"
	 viewBox="0 0 504 360" style="enable-background:new 0 0 504 360;" xml:space="preserve">
<style type="text/css">
	.st0{fill:#FFFFFF;}
	.st1{fill:#18B9EA;}
</style>
<g>
	<g>
		<g>
			<polygon class="st0" points="83.7,247.5 90.9,247.5 107.5,247.5 107.5,240.1 75.3,240.1 75.3,247.5 			"/>
			<g>
				<polygon class="st0" points="287,284.1 269.5,240.1 260.8,240.1 243.2,284.1 251.9,284.1 264.9,249.5 271.4,266.7 262.7,266.7 
					260.1,274.1 274.1,274.1 277.9,284.1 				"/>
				<path class="st0" d="M218.8,240.1v36.4h19v7.6h-27.4v-44H218.8z"/>
				<path class="st0" d="M309.1,277c6.7,0,10.9-4.2,10.9-11.2v-25.7h8.4v25.7c0,11.6-7.4,18.8-19.3,18.8c-12,0-19.6-7.2-19.6-18.8
					v-25.7h8.4v25.7C298,272.8,302.4,277,309.1,277z"/>
				<path class="st0" d="M346.3,240.1l22.7,30.1v-30.1h8.2v44h-8l-22.7-30.1v30.1h-8.2v-44H346.3z"/>
				<path class="st0" d="M408,247.3c-8.3,0-14.8,6.4-14.8,14.6c0,8.2,6.5,14.7,14.8,14.7c4.2,0,8.7-2,12-5.2l5,5.5
					c-4.5,4.6-11,7.6-17.4,7.6c-13,0-23-9.8-23-22.5c0-12.6,10.1-22.2,23.3-22.2c6.3,0,12.7,2.7,17,7l-4.9,6.2
					C416.8,249.5,412.3,247.3,408,247.3z"/>
				<path class="st0" d="M440.2,240.1v18.8h22v-18.8h8.4v44h-8.4v-17.9h-22v17.9h-8.4v-44H440.2z"/>
			</g>
		</g>
		<polygon class="st0" points="263.2,214.7 267.8,214.7 284.6,214.7 330.1,214.7 345.7,193.4 284.6,193.4 284.6,132.3 284.6,128.2 
			284.6,106.9 263.1,106.9 		"/>
	</g>
	<g>
		<g>
			<polygon class="st1" points="83.7,276.8 83.7,265.7 105.1,265.7 105.1,258.3 91.1,258.3 83.7,258.3 75.3,258.3 75.3,284.1 
				108.3,284.1 108.3,276.8 			"/>
			<path class="st1" d="M69.3,240.1v7.5H55.6v36.6h-8.5v-36.6H33.4v-7.5H69.3z"/>
			<path class="st1" d="M136.8,247.3c-8.3,0-14.8,6.4-14.8,14.6c0,8.2,6.5,14.7,14.8,14.7c4.2,0,8.7-2,12-5.2l5,5.5
				c-4.5,4.6-11,7.6-17.4,7.6c-13,0-23-9.8-23-22.5c0-12.6,10.1-22.2,23.3-22.2c6.3,0,12.7,2.7,17,7l-4.9,6.2
				C145.6,249.5,141.1,247.3,136.8,247.3z"/>
			<path class="st1" d="M169.1,240.1v18.8h22v-18.8h8.4v44H191v-17.9h-22v17.9h-8.4v-44H169.1z"/>
		</g>
		<polygon class="st1" points="158.3,75.5 186.2,128.2 231.9,128.2 231.9,214.7 253.2,214.7 253.2,106.9 197.3,106.9 192.2,96.8 
			330.7,96.8 345.7,75.5 		"/>
	</g>
</g>
</svg>
